<svg xmlns="http://www.w3.org/2000/svg" width="880" height="290" viewBox="0 0 880 290" role="img" aria-label="Daily Bugle daily contribution chart for Kiko915">
  <rect width="880" height="290" rx="6" fill="#ece5d3"/>
  <rect x="0.5" y="0.5" width="879" height="289" rx="6" fill="none" stroke="#1a1a1a" stroke-opacity="0.35"/>
  <rect x="8" y="8" width="864" height="274" fill="none" stroke="#1a1a1a" stroke-opacity="0.18"/>
  <line x1="18" y1="26" x2="862" y2="26" stroke="#1a1a1a" stroke-opacity="0.75" stroke-width="2.5"/>
  <line x1="18" y1="30" x2="862" y2="30" stroke="#1a1a1a" stroke-opacity="0.75" stroke-width="1"/>
  <text x="440" y="54" text-anchor="middle" font-family="Georgia,'Times New Roman',Times,serif" font-size="26" font-weight="bold" letter-spacing="1.5" fill="#1a1a1a">THE COMMIT EXCHANGE</text>
  <line x1="18" y1="64" x2="862" y2="64" stroke="#1a1a1a" stroke-opacity="0.75" stroke-width="1"/>
  <line x1="18" y1="68" x2="862" y2="68" stroke="#1a1a1a" stroke-opacity="0.75" stroke-width="2.5"/>
  <text x="440" y="82" text-anchor="middle" font-family="'Helvetica Neue',Helvetica,Arial,sans-serif" font-size="8.5" letter-spacing="1.6" fill="#5b5344">MARKET DESK  ·  DAILY TRADING IN COMMITS  ·  52 WEEKS</text>
  <line x1="18" y1="90" x2="862" y2="90" stroke="#1a1a1a" stroke-opacity="0.45" stroke-width="1"/>
  <text x="440" y="110" text-anchor="middle" font-family="Georgia,'Times New Roman',Times,serif" font-size="12" font-weight="bold" fill="#b3121a">HIGH OF 57 IN A SINGLE SESSION  ·  167 SESSIONS TRADED</text>
  <line x1="18" y1="118" x2="862" y2="118" stroke="#1a1a1a" stroke-opacity="0.45" stroke-width="1"/>
  <line x1="52" y1="225.0" x2="854" y2="225.0" stroke="#1a1a1a" stroke-opacity="0.5"/>
  <text x="44" y="228.0" text-anchor="end" font-family="'Helvetica Neue',Helvetica,Arial,sans-serif" font-size="7.5" fill="#5b5344">0</text>
  <line x1="52" y1="209.2" x2="854" y2="209.2" stroke="#1a1a1a" stroke-opacity="0.13"/>
  <text x="44" y="212.2" text-anchor="end" font-family="'Helvetica Neue',Helvetica,Arial,sans-serif" font-size="7.5" fill="#5b5344">10</text>
  <line x1="52" y1="193.3" x2="854" y2="193.3" stroke="#1a1a1a" stroke-opacity="0.13"/>
  <text x="44" y="196.3" text-anchor="end" font-family="'Helvetica Neue',Helvetica,Arial,sans-serif" font-size="7.5" fill="#5b5344">20</text>
  <line x1="52" y1="177.5" x2="854" y2="177.5" stroke="#1a1a1a" stroke-opacity="0.13"/>
  <text x="44" y="180.5" text-anchor="end" font-family="'Helvetica Neue',Helvetica,Arial,sans-serif" font-size="7.5" fill="#5b5344">30</text>
  <line x1="52" y1="161.7" x2="854" y2="161.7" stroke="#1a1a1a" stroke-opacity="0.13"/>
  <text x="44" y="164.7" text-anchor="end" font-family="'Helvetica Neue',Helvetica,Arial,sans-serif" font-size="7.5" fill="#5b5344">40</text>
  <line x1="52" y1="145.8" x2="854" y2="145.8" stroke="#1a1a1a" stroke-opacity="0.13"/>
  <text x="44" y="148.8" text-anchor="end" font-family="'Helvetica Neue',Helvetica,Arial,sans-serif" font-size="7.5" fill="#5b5344">50</text>
  <line x1="52" y1="130.0" x2="854" y2="130.0" stroke="#1a1a1a" stroke-opacity="0.13"/>
  <text x="44" y="133.0" text-anchor="end" font-family="'Helvetica Neue',Helvetica,Arial,sans-serif" font-size="7.5" fill="#5b5344">60</text>
  <path d="M 52.0,225 L 52.0,225.0 L 54.2,221.8 L 56.4,225.0 L 58.6,225.0 L 60.8,225.0 L 63.0,217.1 L 65.1,218.7 L 67.3,225.0 L 69.5,223.4 L 71.7,225.0 L 73.9,225.0 L 76.1,225.0 L 78.3,225.0 L 80.5,225.0 L 82.7,225.0 L 84.9,225.0 L 87.1,221.8 L 89.3,225.0 L 91.4,225.0 L 93.6,225.0 L 95.8,223.4 L 98.0,225.0 L 100.2,225.0 L 102.4,221.8 L 104.6,202.8 L 106.8,215.5 L 109.0,218.7 L 111.2,215.5 L 113.4,204.4 L 115.5,177.5 L 117.7,194.9 L 119.9,225.0 L 122.1,202.8 L 124.3,196.5 L 126.5,198.1 L 128.7,213.9 L 130.9,221.8 L 133.1,220.3 L 135.3,220.3 L 137.5,206.0 L 139.7,225.0 L 141.8,225.0 L 144.0,225.0 L 146.2,225.0 L 148.4,225.0 L 150.6,225.0 L 152.8,225.0 L 155.0,225.0 L 157.2,225.0 L 159.4,225.0 L 161.6,225.0 L 163.8,225.0 L 165.9,225.0 L 168.1,217.1 L 170.3,225.0 L 172.5,225.0 L 174.7,225.0 L 176.9,225.0 L 179.1,225.0 L 181.3,225.0 L 183.5,225.0 L 185.7,225.0 L 187.9,223.4 L 190.0,223.4 L 192.2,221.8 L 194.4,225.0 L 196.6,217.1 L 198.8,225.0 L 201.0,221.8 L 203.2,218.7 L 205.4,212.3 L 207.6,221.8 L 209.8,215.5 L 212.0,225.0 L 214.2,206.0 L 216.3,220.3 L 218.5,210.8 L 220.7,207.6 L 222.9,209.2 L 225.1,218.7 L 227.3,215.5 L 229.5,221.8 L 231.7,225.0 L 233.9,199.7 L 236.1,206.0 L 238.3,217.1 L 240.4,202.8 L 242.6,210.8 L 244.8,215.5 L 247.0,225.0 L 249.2,225.0 L 251.4,225.0 L 253.6,225.0 L 255.8,225.0 L 258.0,223.4 L 260.2,218.7 L 262.4,221.8 L 264.6,212.3 L 266.7,180.7 L 268.9,220.3 L 271.1,225.0 L 273.3,225.0 L 275.5,225.0 L 277.7,225.0 L 279.9,225.0 L 282.1,225.0 L 284.3,225.0 L 286.5,206.0 L 288.7,225.0 L 290.8,225.0 L 293.0,225.0 L 295.2,223.4 L 297.4,220.3 L 299.6,225.0 L 301.8,225.0 L 304.0,225.0 L 306.2,225.0 L 308.4,225.0 L 310.6,225.0 L 312.8,225.0 L 315.0,212.3 L 317.1,194.9 L 319.3,223.4 L 321.5,220.3 L 323.7,223.4 L 325.9,225.0 L 328.1,225.0 L 330.3,225.0 L 332.5,169.6 L 334.7,220.3 L 336.9,225.0 L 339.1,221.8 L 341.2,225.0 L 343.4,213.9 L 345.6,166.4 L 347.8,220.3 L 350.0,215.5 L 352.2,201.3 L 354.4,158.5 L 356.6,134.8 L 358.8,177.5 L 361.0,194.9 L 363.2,174.3 L 365.3,196.5 L 367.5,144.3 L 369.7,190.2 L 371.9,225.0 L 374.1,225.0 L 376.3,217.1 L 378.5,225.0 L 380.7,225.0 L 382.9,225.0 L 385.1,225.0 L 387.3,225.0 L 389.5,225.0 L 391.6,201.3 L 393.8,193.3 L 396.0,191.8 L 398.2,185.4 L 400.4,221.8 L 402.6,217.1 L 404.8,213.9 L 407.0,215.5 L 409.2,223.4 L 411.4,180.7 L 413.6,209.2 L 415.7,210.8 L 417.9,225.0 L 420.1,217.1 L 422.3,213.9 L 424.5,198.1 L 426.7,217.1 L 428.9,225.0 L 431.1,204.4 L 433.3,198.1 L 435.5,209.2 L 437.7,225.0 L 439.9,210.8 L 442.0,212.3 L 444.2,223.4 L 446.4,225.0 L 448.6,225.0 L 450.8,225.0 L 453.0,225.0 L 455.2,225.0 L 457.4,225.0 L 459.6,206.0 L 461.8,225.0 L 464.0,215.5 L 466.1,223.4 L 468.3,220.3 L 470.5,223.4 L 472.7,225.0 L 474.9,225.0 L 477.1,225.0 L 479.3,225.0 L 481.5,225.0 L 483.7,225.0 L 485.9,225.0 L 488.1,213.9 L 490.3,217.1 L 492.4,225.0 L 494.6,225.0 L 496.8,225.0 L 499.0,217.1 L 501.2,225.0 L 503.4,225.0 L 505.6,221.8 L 507.8,225.0 L 510.0,225.0 L 512.2,218.7 L 514.4,223.4 L 516.5,218.7 L 518.7,221.8 L 520.9,225.0 L 523.1,209.2 L 525.3,204.4 L 527.5,198.1 L 529.7,210.8 L 531.9,225.0 L 534.1,199.7 L 536.3,213.9 L 538.5,225.0 L 540.7,225.0 L 542.8,225.0 L 545.0,225.0 L 547.2,225.0 L 549.4,220.3 L 551.6,225.0 L 553.8,221.8 L 556.0,225.0 L 558.2,220.3 L 560.4,190.2 L 562.6,225.0 L 564.8,225.0 L 566.9,225.0 L 569.1,225.0 L 571.3,225.0 L 573.5,225.0 L 575.7,225.0 L 577.9,215.5 L 580.1,225.0 L 582.3,225.0 L 584.5,225.0 L 586.7,225.0 L 588.9,204.4 L 591.0,225.0 L 593.2,225.0 L 595.4,225.0 L 597.6,225.0 L 599.8,225.0 L 602.0,225.0 L 604.2,225.0 L 606.4,225.0 L 608.6,225.0 L 610.8,225.0 L 613.0,223.4 L 615.2,225.0 L 617.3,225.0 L 619.5,225.0 L 621.7,225.0 L 623.9,225.0 L 626.1,225.0 L 628.3,225.0 L 630.5,225.0 L 632.7,225.0 L 634.9,225.0 L 637.1,225.0 L 639.3,225.0 L 641.4,223.4 L 643.6,225.0 L 645.8,225.0 L 648.0,223.4 L 650.2,225.0 L 652.4,225.0 L 654.6,225.0 L 656.8,225.0 L 659.0,223.4 L 661.2,225.0 L 663.4,225.0 L 665.6,201.3 L 667.7,223.4 L 669.9,215.5 L 672.1,212.3 L 674.3,217.1 L 676.5,212.3 L 678.7,206.0 L 680.9,201.3 L 683.1,218.7 L 685.3,221.8 L 687.5,213.9 L 689.7,215.5 L 691.8,225.0 L 694.0,225.0 L 696.2,225.0 L 698.4,225.0 L 700.6,225.0 L 702.8,217.1 L 705.0,225.0 L 707.2,225.0 L 709.4,225.0 L 711.6,215.5 L 713.8,223.4 L 716.0,225.0 L 718.1,225.0 L 720.3,225.0 L 722.5,225.0 L 724.7,225.0 L 726.9,225.0 L 729.1,220.3 L 731.3,225.0 L 733.5,225.0 L 735.7,225.0 L 737.9,225.0 L 740.1,225.0 L 742.2,223.4 L 744.4,225.0 L 746.6,225.0 L 748.8,223.4 L 751.0,215.5 L 753.2,221.8 L 755.4,221.8 L 757.6,223.4 L 759.8,225.0 L 762.0,225.0 L 764.2,225.0 L 766.3,220.3 L 768.5,225.0 L 770.7,225.0 L 772.9,225.0 L 775.1,225.0 L 777.3,225.0 L 779.5,206.0 L 781.7,218.7 L 783.9,215.5 L 786.1,212.3 L 788.3,221.8 L 790.5,225.0 L 792.6,225.0 L 794.8,225.0 L 797.0,225.0 L 799.2,213.9 L 801.4,225.0 L 803.6,225.0 L 805.8,225.0 L 808.0,225.0 L 810.2,225.0 L 812.4,225.0 L 814.6,225.0 L 816.7,223.4 L 818.9,217.1 L 821.1,202.8 L 823.3,225.0 L 825.5,215.5 L 827.7,213.9 L 829.9,210.8 L 832.1,207.6 L 834.3,190.2 L 836.5,215.5 L 838.7,225.0 L 840.9,218.7 L 843.0,225.0 L 845.2,225.0 L 847.4,225.0 L 849.6,225.0 L 851.8,225.0 L 854.0,225.0 L 854.0,225 Z" fill="#1a1a1a" fill-opacity="0.2"/>
  <path d="M 65.1,222.5 L 67.3,222.5 L 69.5,222.7 L 71.7,222.7 L 73.9,222.7 L 76.1,222.7 L 78.3,223.9 L 80.5,224.8 L 82.7,224.8 L 84.9,225.0 L 87.1,224.5 L 89.3,224.5 L 91.4,224.5 L 93.6,224.5 L 95.8,224.3 L 98.0,224.3 L 100.2,224.3 L 102.4,224.3 L 104.6,221.2 L 106.8,219.8 L 109.0,218.9 L 111.2,217.8 L 113.4,214.8 L 115.5,208.0 L 117.7,204.2 L 119.9,207.4 L 122.1,205.5 L 124.3,202.4 L 126.5,199.9 L 128.7,201.3 L 130.9,207.6 L 133.1,211.2 L 135.3,210.5 L 137.5,211.0 L 139.7,215.0 L 141.8,218.9 L 144.0,220.5 L 146.2,220.9 L 148.4,221.6 L 150.6,222.3 L 152.8,225.0 L 155.0,225.0 L 157.2,225.0 L 159.4,225.0 L 161.6,225.0 L 163.8,225.0 L 165.9,225.0 L 168.1,223.9 L 170.3,223.9 L 172.5,223.9 L 174.7,223.9 L 176.9,223.9 L 179.1,223.9 L 181.3,223.9 L 183.5,225.0 L 185.7,225.0 L 187.9,224.8 L 190.0,224.5 L 192.2,224.1 L 194.4,224.1 L 196.6,223.0 L 198.8,223.0 L 201.0,222.5 L 203.2,221.8 L 205.4,220.3 L 207.6,220.3 L 209.8,218.9 L 212.0,220.0 L 214.2,217.3 L 216.3,217.1 L 218.5,216.0 L 220.7,215.3 L 222.9,213.5 L 225.1,213.9 L 227.3,212.6 L 229.5,214.8 L 231.7,215.5 L 233.9,213.9 L 236.1,213.7 L 238.3,214.8 L 240.4,212.6 L 242.6,211.9 L 244.8,211.0 L 247.0,211.0 L 249.2,214.6 L 251.4,217.3 L 253.6,218.4 L 255.8,221.6 L 258.0,223.4 L 260.2,223.9 L 262.4,223.4 L 264.6,221.6 L 266.7,215.3 L 268.9,214.6 L 271.1,214.6 L 273.3,214.8 L 275.5,215.7 L 277.7,216.2 L 279.9,218.0 L 282.1,224.3 L 284.3,225.0 L 286.5,222.3 L 288.7,222.3 L 290.8,222.3 L 293.0,222.3 L 295.2,222.1 L 297.4,221.4 L 299.6,221.4 L 301.8,224.1 L 304.0,224.1 L 306.2,224.1 L 308.4,224.1 L 310.6,224.3 L 312.8,225.0 L 315.0,223.2 L 317.1,218.9 L 319.3,218.7 L 321.5,218.0 L 323.7,217.8 L 325.9,217.8 L 328.1,217.8 L 330.3,219.6 L 332.5,216.0 L 334.7,215.5 L 336.9,216.2 L 339.1,216.0 L 341.2,216.0 L 343.4,214.4 L 345.6,206.0 L 347.8,213.2 L 350.0,212.6 L 352.2,209.2 L 354.4,200.1 L 356.6,187.2 L 358.8,182.0 L 361.0,186.1 L 363.2,179.5 L 365.3,176.8 L 367.5,168.7 L 369.7,173.2 L 371.9,186.1 L 374.1,192.9 L 376.3,196.0 L 378.5,203.3 L 380.7,207.4 L 382.9,218.9 L 385.1,223.9 L 387.3,223.9 L 389.5,223.9 L 391.6,221.6 L 393.8,217.1 L 396.0,212.3 L 398.2,206.7 L 400.4,206.2 L 402.6,205.1 L 404.8,203.5 L 407.0,205.5 L 409.2,209.8 L 411.4,208.3 L 413.6,211.7 L 415.7,210.1 L 417.9,211.2 L 420.1,211.7 L 422.3,211.4 L 424.5,207.8 L 426.7,213.0 L 428.9,215.3 L 431.1,214.4 L 433.3,210.5 L 435.5,209.4 L 437.7,211.0 L 439.9,212.8 L 442.0,212.1 L 444.2,211.9 L 446.4,214.8 L 448.6,218.7 L 450.8,220.9 L 453.0,220.9 L 455.2,223.0 L 457.4,224.8 L 459.6,222.3 L 461.8,222.3 L 464.0,220.9 L 466.1,220.7 L 468.3,220.0 L 470.5,219.8 L 472.7,219.8 L 474.9,222.5 L 477.1,222.5 L 479.3,223.9 L 481.5,224.1 L 483.7,224.8 L 485.9,225.0 L 488.1,223.4 L 490.3,222.3 L 492.4,222.3 L 494.6,222.3 L 496.8,222.3 L 499.0,221.2 L 501.2,221.2 L 503.4,222.7 L 505.6,223.4 L 507.8,223.4 L 510.0,223.4 L 512.2,222.5 L 514.4,223.4 L 516.5,222.5 L 518.7,222.1 L 520.9,222.5 L 523.1,220.3 L 525.3,217.3 L 527.5,214.4 L 529.7,212.6 L 531.9,213.5 L 534.1,210.3 L 536.3,208.7 L 538.5,211.0 L 540.7,213.9 L 542.8,217.8 L 545.0,219.8 L 547.2,219.8 L 549.4,222.7 L 551.6,224.3 L 553.8,223.9 L 556.0,223.9 L 558.2,223.2 L 560.4,218.2 L 562.6,218.2 L 564.8,218.9 L 566.9,218.9 L 569.1,219.3 L 571.3,219.3 L 573.5,220.0 L 575.7,225.0 L 577.9,223.6 L 580.1,223.6 L 582.3,223.6 L 584.5,223.6 L 586.7,223.6 L 588.9,220.7 L 591.0,220.7 L 593.2,222.1 L 595.4,222.1 L 597.6,222.1 L 599.8,222.1 L 602.0,222.1 L 604.2,225.0 L 606.4,225.0 L 608.6,225.0 L 610.8,225.0 L 613.0,224.8 L 615.2,224.8 L 617.3,224.8 L 619.5,224.8 L 621.7,224.8 L 623.9,224.8 L 626.1,224.8 L 628.3,225.0 L 630.5,225.0 L 632.7,225.0 L 634.9,225.0 L 637.1,225.0 L 639.3,225.0 L 641.4,224.8 L 643.6,224.8 L 645.8,224.8 L 648.0,224.5 L 650.2,224.5 L 652.4,224.5 L 654.6,224.5 L 656.8,224.8 L 659.0,224.5 L 661.2,224.5 L 663.4,224.8 L 665.6,221.4 L 667.7,221.2 L 669.9,219.8 L 672.1,218.0 L 674.3,217.1 L 676.5,215.3 L 678.7,212.6 L 680.9,212.6 L 683.1,211.9 L 685.3,212.8 L 687.5,213.0 L 689.7,212.8 L 691.8,214.6 L 694.0,217.3 L 696.2,220.7 L 698.4,221.6 L 700.6,222.1 L 702.8,222.5 L 705.0,223.9 L 707.2,223.9 L 709.4,223.9 L 711.6,222.5 L 713.8,222.3 L 716.0,222.3 L 718.1,223.4 L 720.3,223.4 L 722.5,223.4 L 724.7,223.4 L 726.9,224.8 L 729.1,224.3 L 731.3,224.3 L 733.5,224.3 L 735.7,224.3 L 737.9,224.3 L 740.1,224.3 L 742.2,224.1 L 744.4,224.8 L 746.6,224.8 L 748.8,224.5 L 751.0,223.2 L 753.2,222.7 L 755.4,222.3 L 757.6,222.3 L 759.8,222.3 L 762.0,222.3 L 764.2,222.5 L 766.3,223.2 L 768.5,223.6 L 770.7,224.1 L 772.9,224.3 L 775.1,224.3 L 777.3,224.3 L 779.5,221.6 L 781.7,221.4 L 783.9,220.0 L 786.1,218.2 L 788.3,217.8 L 790.5,217.8 L 792.6,217.8 L 794.8,220.5 L 797.0,221.4 L 799.2,221.2 L 801.4,223.0 L 803.6,223.4 L 805.8,223.4 L 808.0,223.4 L 810.2,223.4 L 812.4,223.4 L 814.6,225.0 L 816.7,224.8 L 818.9,223.6 L 821.1,220.5 L 823.3,220.5 L 825.5,219.1 L 827.7,217.5 L 829.9,215.5 L 832.1,213.2 L 834.3,209.4 L 836.5,211.2 L 838.7,211.2 L 840.9,211.7 L 843.0,213.2 L 845.2,215.3 L 847.4,217.8 L 849.6,222.7 L 851.8,224.1 L 854.0,224.1" fill="none" stroke="#b3121a" stroke-opacity="0.85" stroke-width="1.6" stroke-linejoin="round"/>
  <line x1="73.9" y1="225" x2="73.9" y2="229" stroke="#1a1a1a" stroke-opacity="0.4"/>
  <text x="73.9" y="240" text-anchor="middle" font-family="'Helvetica Neue',Helvetica,Arial,sans-serif" font-size="7.5" letter-spacing="0.6" fill="#5b5344">OCT</text>
  <line x1="141.8" y1="225" x2="141.8" y2="229" stroke="#1a1a1a" stroke-opacity="0.4"/>
  <text x="141.8" y="240" text-anchor="middle" font-family="'Helvetica Neue',Helvetica,Arial,sans-serif" font-size="7.5" letter-spacing="0.6" fill="#5b5344">NOV</text>
  <line x1="207.6" y1="225" x2="207.6" y2="229" stroke="#1a1a1a" stroke-opacity="0.4"/>
  <text x="207.6" y="240" text-anchor="middle" font-family="'Helvetica Neue',Helvetica,Arial,sans-serif" font-size="7.5" letter-spacing="0.6" fill="#5b5344">DEC</text>
  <line x1="275.5" y1="225" x2="275.5" y2="229" stroke="#1a1a1a" stroke-opacity="0.4"/>
  <text x="275.5" y="240" text-anchor="middle" font-family="'Helvetica Neue',Helvetica,Arial,sans-serif" font-size="7.5" letter-spacing="0.6" fill="#5b5344">JAN</text>
  <line x1="343.4" y1="225" x2="343.4" y2="229" stroke="#1a1a1a" stroke-opacity="0.4"/>
  <text x="343.4" y="240" text-anchor="middle" font-family="'Helvetica Neue',Helvetica,Arial,sans-serif" font-size="7.5" letter-spacing="0.6" fill="#5b5344">FEB</text>
  <line x1="404.8" y1="225" x2="404.8" y2="229" stroke="#1a1a1a" stroke-opacity="0.4"/>
  <text x="404.8" y="240" text-anchor="middle" font-family="'Helvetica Neue',Helvetica,Arial,sans-serif" font-size="7.5" letter-spacing="0.6" fill="#5b5344">MAR</text>
  <line x1="472.7" y1="225" x2="472.7" y2="229" stroke="#1a1a1a" stroke-opacity="0.4"/>
  <text x="472.7" y="240" text-anchor="middle" font-family="'Helvetica Neue',Helvetica,Arial,sans-serif" font-size="7.5" letter-spacing="0.6" fill="#5b5344">APR</text>
  <line x1="538.5" y1="225" x2="538.5" y2="229" stroke="#1a1a1a" stroke-opacity="0.4"/>
  <text x="538.5" y="240" text-anchor="middle" font-family="'Helvetica Neue',Helvetica,Arial,sans-serif" font-size="7.5" letter-spacing="0.6" fill="#5b5344">MAY</text>
  <line x1="606.4" y1="225" x2="606.4" y2="229" stroke="#1a1a1a" stroke-opacity="0.4"/>
  <text x="606.4" y="240" text-anchor="middle" font-family="'Helvetica Neue',Helvetica,Arial,sans-serif" font-size="7.5" letter-spacing="0.6" fill="#5b5344">JUN</text>
  <line x1="672.1" y1="225" x2="672.1" y2="229" stroke="#1a1a1a" stroke-opacity="0.4"/>
  <text x="672.1" y="240" text-anchor="middle" font-family="'Helvetica Neue',Helvetica,Arial,sans-serif" font-size="7.5" letter-spacing="0.6" fill="#5b5344">JUL</text>
  <line x1="740.1" y1="225" x2="740.1" y2="229" stroke="#1a1a1a" stroke-opacity="0.4"/>
  <text x="740.1" y="240" text-anchor="middle" font-family="'Helvetica Neue',Helvetica,Arial,sans-serif" font-size="7.5" letter-spacing="0.6" fill="#5b5344">AUG</text>
  <line x1="808.0" y1="225" x2="808.0" y2="229" stroke="#1a1a1a" stroke-opacity="0.4"/>
  <text x="808.0" y="240" text-anchor="middle" font-family="'Helvetica Neue',Helvetica,Arial,sans-serif" font-size="7.5" letter-spacing="0.6" fill="#5b5344">SEP</text>
  <circle cx="356.6" cy="134.8" r="3" fill="none" stroke="#b3121a" stroke-width="1.4"/>
  <text x="364.6" y="137.8" text-anchor="start" font-family="'Helvetica Neue',Helvetica,Arial,sans-serif" font-size="7.5" letter-spacing="0.6" fill="#b3121a">HIGH 57 · FEB 7 2026</text>
  <text x="854" y="126" text-anchor="end" font-family="'Helvetica Neue',Helvetica,Arial,sans-serif" font-size="7" letter-spacing="0.6" fill="#5b5344">RED LINE: 7-DAY MOVING AVERAGE</text>
  <line x1="18" y1="248" x2="862" y2="248" stroke="#1a1a1a" stroke-opacity="0.45" stroke-width="1"/>
  <text x="110" y="261" text-anchor="middle" font-family="'Helvetica Neue',Helvetica,Arial,sans-serif" font-size="8" letter-spacing="1" fill="#5b5344">SESSION HIGH</text>
  <text x="110" y="275" text-anchor="middle" font-family="Georgia,'Times New Roman',Times,serif" font-size="13" font-weight="bold" fill="#1a1a1a">57</text>
  <text x="330" y="261" text-anchor="middle" font-family="'Helvetica Neue',Helvetica,Arial,sans-serif" font-size="8" letter-spacing="1" fill="#5b5344">DAILY AVERAGE</text>
  <text x="330" y="275" text-anchor="middle" font-family="Georgia,'Times New Roman',Times,serif" font-size="13" font-weight="bold" fill="#1a1a1a">4.0</text>
  <text x="550" y="261" text-anchor="middle" font-family="'Helvetica Neue',Helvetica,Arial,sans-serif" font-size="8" letter-spacing="1" fill="#5b5344">ACTIVE SESSIONS</text>
  <text x="550" y="275" text-anchor="middle" font-family="Georgia,'Times New Roman',Times,serif" font-size="13" font-weight="bold" fill="#1a1a1a">167 / 367</text>
  <text x="770" y="261" text-anchor="middle" font-family="'Helvetica Neue',Helvetica,Arial,sans-serif" font-size="8" letter-spacing="1" fill="#5b5344">BUSIEST MONTH</text>
  <text x="770" y="275" text-anchor="middle" font-family="Georgia,'Times New Roman',Times,serif" font-size="13" font-weight="bold" fill="#1a1a1a">FEB 2026</text>
</svg>
