<svg xmlns="http://www.w3.org/2000/svg" width="880" height="290" viewBox="0 0 880 290" role="img" aria-label="Daily Bugle daily contribution chart for Kiko915">
  <rect width="880" height="290" rx="6" fill="#ece5d3"/>
  <rect x="0.5" y="0.5" width="879" height="289" rx="6" fill="none" stroke="#1a1a1a" stroke-opacity="0.35"/>
  <rect x="8" y="8" width="864" height="274" fill="none" stroke="#1a1a1a" stroke-opacity="0.18"/>
  <line x1="18" y1="26" x2="862" y2="26" stroke="#1a1a1a" stroke-opacity="0.75" stroke-width="2.5"/>
  <line x1="18" y1="30" x2="862" y2="30" stroke="#1a1a1a" stroke-opacity="0.75" stroke-width="1"/>
  <text x="440" y="54" text-anchor="middle" font-family="Georgia,'Times New Roman',Times,serif" font-size="26" font-weight="bold" letter-spacing="1.5" fill="#1a1a1a">THE COMMIT EXCHANGE</text>
  <line x1="18" y1="64" x2="862" y2="64" stroke="#1a1a1a" stroke-opacity="0.75" stroke-width="1"/>
  <line x1="18" y1="68" x2="862" y2="68" stroke="#1a1a1a" stroke-opacity="0.75" stroke-width="2.5"/>
  <text x="440" y="82" text-anchor="middle" font-family="'Helvetica Neue',Helvetica,Arial,sans-serif" font-size="8.5" letter-spacing="1.6" fill="#5b5344">MARKET DESK  ·  DAILY TRADING IN COMMITS  ·  52 WEEKS</text>
  <line x1="18" y1="90" x2="862" y2="90" stroke="#1a1a1a" stroke-opacity="0.45" stroke-width="1"/>
  <text x="440" y="110" text-anchor="middle" font-family="Georgia,'Times New Roman',Times,serif" font-size="12" font-weight="bold" fill="#b3121a">HIGH OF 57 IN A SINGLE SESSION  ·  163 SESSIONS TRADED</text>
  <line x1="18" y1="118" x2="862" y2="118" stroke="#1a1a1a" stroke-opacity="0.45" stroke-width="1"/>
  <line x1="52" y1="225.0" x2="854" y2="225.0" stroke="#1a1a1a" stroke-opacity="0.5"/>
  <text x="44" y="228.0" text-anchor="end" font-family="'Helvetica Neue',Helvetica,Arial,sans-serif" font-size="7.5" fill="#5b5344">0</text>
  <line x1="52" y1="209.2" x2="854" y2="209.2" stroke="#1a1a1a" stroke-opacity="0.13"/>
  <text x="44" y="212.2" text-anchor="end" font-family="'Helvetica Neue',Helvetica,Arial,sans-serif" font-size="7.5" fill="#5b5344">10</text>
  <line x1="52" y1="193.3" x2="854" y2="193.3" stroke="#1a1a1a" stroke-opacity="0.13"/>
  <text x="44" y="196.3" text-anchor="end" font-family="'Helvetica Neue',Helvetica,Arial,sans-serif" font-size="7.5" fill="#5b5344">20</text>
  <line x1="52" y1="177.5" x2="854" y2="177.5" stroke="#1a1a1a" stroke-opacity="0.13"/>
  <text x="44" y="180.5" text-anchor="end" font-family="'Helvetica Neue',Helvetica,Arial,sans-serif" font-size="7.5" fill="#5b5344">30</text>
  <line x1="52" y1="161.7" x2="854" y2="161.7" stroke="#1a1a1a" stroke-opacity="0.13"/>
  <text x="44" y="164.7" text-anchor="end" font-family="'Helvetica Neue',Helvetica,Arial,sans-serif" font-size="7.5" fill="#5b5344">40</text>
  <line x1="52" y1="145.8" x2="854" y2="145.8" stroke="#1a1a1a" stroke-opacity="0.13"/>
  <text x="44" y="148.8" text-anchor="end" font-family="'Helvetica Neue',Helvetica,Arial,sans-serif" font-size="7.5" fill="#5b5344">50</text>
  <line x1="52" y1="130.0" x2="854" y2="130.0" stroke="#1a1a1a" stroke-opacity="0.13"/>
  <text x="44" y="133.0" text-anchor="end" font-family="'Helvetica Neue',Helvetica,Arial,sans-serif" font-size="7.5" fill="#5b5344">60</text>
  <path d="M 52.0,225 L 52.0,225.0 L 54.2,225.0 L 56.4,225.0 L 58.6,225.0 L 60.8,225.0 L 63.0,225.0 L 65.2,225.0 L 67.4,225.0 L 69.6,225.0 L 71.8,223.4 L 74.0,225.0 L 76.2,223.4 L 78.4,225.0 L 80.6,223.4 L 82.8,225.0 L 85.0,225.0 L 87.2,225.0 L 89.4,213.9 L 91.6,218.7 L 93.7,218.7 L 95.9,225.0 L 98.1,218.7 L 100.3,225.0 L 102.5,225.0 L 104.7,225.0 L 106.9,225.0 L 109.1,225.0 L 111.3,225.0 L 113.5,225.0 L 115.7,221.8 L 117.9,225.0 L 120.1,225.0 L 122.3,225.0 L 124.5,217.1 L 126.7,218.7 L 128.9,225.0 L 131.1,223.4 L 133.3,225.0 L 135.5,225.0 L 137.7,225.0 L 139.9,225.0 L 142.1,225.0 L 144.3,225.0 L 146.5,225.0 L 148.7,221.8 L 150.9,225.0 L 153.1,225.0 L 155.3,225.0 L 157.5,223.4 L 159.7,225.0 L 161.9,225.0 L 164.1,221.8 L 166.3,202.8 L 168.5,215.5 L 170.7,218.7 L 172.8,215.5 L 175.0,204.4 L 177.2,177.5 L 179.4,194.9 L 181.6,225.0 L 183.8,202.8 L 186.0,196.5 L 188.2,198.1 L 190.4,213.9 L 192.6,221.8 L 194.8,220.3 L 197.0,220.3 L 199.2,206.0 L 201.4,225.0 L 203.6,225.0 L 205.8,225.0 L 208.0,225.0 L 210.2,225.0 L 212.4,225.0 L 214.6,225.0 L 216.8,225.0 L 219.0,225.0 L 221.2,225.0 L 223.4,225.0 L 225.6,225.0 L 227.8,225.0 L 230.0,217.1 L 232.2,225.0 L 234.4,225.0 L 236.6,225.0 L 238.8,225.0 L 241.0,225.0 L 243.2,225.0 L 245.4,225.0 L 247.6,225.0 L 249.8,223.4 L 252.0,223.4 L 254.1,221.8 L 256.3,225.0 L 258.5,217.1 L 260.7,225.0 L 262.9,221.8 L 265.1,218.7 L 267.3,212.3 L 269.5,221.8 L 271.7,215.5 L 273.9,225.0 L 276.1,206.0 L 278.3,220.3 L 280.5,210.8 L 282.7,207.6 L 284.9,209.2 L 287.1,218.7 L 289.3,215.5 L 291.5,221.8 L 293.7,225.0 L 295.9,199.7 L 298.1,206.0 L 300.3,217.1 L 302.5,202.8 L 304.7,210.8 L 306.9,215.5 L 309.1,225.0 L 311.3,225.0 L 313.5,225.0 L 315.7,225.0 L 317.9,225.0 L 320.1,223.4 L 322.3,218.7 L 324.5,221.8 L 326.7,212.3 L 328.9,180.7 L 331.1,220.3 L 333.2,225.0 L 335.4,225.0 L 337.6,225.0 L 339.8,225.0 L 342.0,225.0 L 344.2,225.0 L 346.4,225.0 L 348.6,206.0 L 350.8,225.0 L 353.0,225.0 L 355.2,225.0 L 357.4,223.4 L 359.6,220.3 L 361.8,225.0 L 364.0,225.0 L 366.2,225.0 L 368.4,225.0 L 370.6,225.0 L 372.8,225.0 L 375.0,225.0 L 377.2,212.3 L 379.4,194.9 L 381.6,223.4 L 383.8,220.3 L 386.0,223.4 L 388.2,225.0 L 390.4,225.0 L 392.6,225.0 L 394.8,169.6 L 397.0,220.3 L 399.2,225.0 L 401.4,221.8 L 403.6,225.0 L 405.8,213.9 L 408.0,166.4 L 410.2,220.3 L 412.4,215.5 L 414.5,201.3 L 416.7,158.5 L 418.9,134.8 L 421.1,177.5 L 423.3,194.9 L 425.5,174.3 L 427.7,196.5 L 429.9,144.3 L 432.1,190.2 L 434.3,225.0 L 436.5,225.0 L 438.7,217.1 L 440.9,225.0 L 443.1,225.0 L 445.3,225.0 L 447.5,225.0 L 449.7,225.0 L 451.9,225.0 L 454.1,201.3 L 456.3,193.3 L 458.5,191.8 L 460.7,185.4 L 462.9,221.8 L 465.1,217.1 L 467.3,213.9 L 469.5,215.5 L 471.7,223.4 L 473.9,180.7 L 476.1,209.2 L 478.3,210.8 L 480.5,225.0 L 482.7,217.1 L 484.9,213.9 L 487.1,198.1 L 489.3,217.1 L 491.5,225.0 L 493.6,204.4 L 495.8,198.1 L 498.0,209.2 L 500.2,225.0 L 502.4,210.8 L 504.6,212.3 L 506.8,223.4 L 509.0,225.0 L 511.2,225.0 L 513.4,225.0 L 515.6,225.0 L 517.8,225.0 L 520.0,225.0 L 522.2,206.0 L 524.4,225.0 L 526.6,215.5 L 528.8,223.4 L 531.0,220.3 L 533.2,223.4 L 535.4,225.0 L 537.6,225.0 L 539.8,225.0 L 542.0,225.0 L 544.2,225.0 L 546.4,225.0 L 548.6,225.0 L 550.8,213.9 L 553.0,217.1 L 555.2,225.0 L 557.4,225.0 L 559.6,225.0 L 561.8,217.1 L 564.0,225.0 L 566.2,225.0 L 568.4,221.8 L 570.6,225.0 L 572.8,225.0 L 574.9,218.7 L 577.1,223.4 L 579.3,218.7 L 581.5,221.8 L 583.7,225.0 L 585.9,209.2 L 588.1,204.4 L 590.3,198.1 L 592.5,210.8 L 594.7,225.0 L 596.9,199.7 L 599.1,213.9 L 601.3,225.0 L 603.5,225.0 L 605.7,225.0 L 607.9,225.0 L 610.1,225.0 L 612.3,220.3 L 614.5,225.0 L 616.7,221.8 L 618.9,225.0 L 621.1,220.3 L 623.3,190.2 L 625.5,225.0 L 627.7,225.0 L 629.9,225.0 L 632.1,225.0 L 634.3,225.0 L 636.5,225.0 L 638.7,225.0 L 640.9,215.5 L 643.1,225.0 L 645.3,225.0 L 647.5,225.0 L 649.7,225.0 L 651.9,204.4 L 654.0,225.0 L 656.2,225.0 L 658.4,225.0 L 660.6,225.0 L 662.8,225.0 L 665.0,225.0 L 667.2,225.0 L 669.4,225.0 L 671.6,225.0 L 673.8,225.0 L 676.0,223.4 L 678.2,225.0 L 680.4,225.0 L 682.6,225.0 L 684.8,225.0 L 687.0,225.0 L 689.2,225.0 L 691.4,225.0 L 693.6,225.0 L 695.8,225.0 L 698.0,225.0 L 700.2,225.0 L 702.4,225.0 L 704.6,223.4 L 706.8,225.0 L 709.0,225.0 L 711.2,223.4 L 713.4,225.0 L 715.6,225.0 L 717.8,225.0 L 720.0,225.0 L 722.2,223.4 L 724.4,225.0 L 726.6,225.0 L 728.8,201.3 L 731.0,223.4 L 733.2,215.5 L 735.3,212.3 L 737.5,217.1 L 739.7,212.3 L 741.9,206.0 L 744.1,201.3 L 746.3,218.7 L 748.5,221.8 L 750.7,213.9 L 752.9,215.5 L 755.1,225.0 L 757.3,225.0 L 759.5,225.0 L 761.7,225.0 L 763.9,225.0 L 766.1,217.1 L 768.3,225.0 L 770.5,225.0 L 772.7,225.0 L 774.9,215.5 L 777.1,223.4 L 779.3,225.0 L 781.5,225.0 L 783.7,225.0 L 785.9,225.0 L 788.1,225.0 L 790.3,225.0 L 792.5,220.3 L 794.7,225.0 L 796.9,225.0 L 799.1,225.0 L 801.3,225.0 L 803.5,225.0 L 805.7,223.4 L 807.9,225.0 L 810.1,225.0 L 812.3,223.4 L 814.4,215.5 L 816.6,221.8 L 818.8,221.8 L 821.0,223.4 L 823.2,225.0 L 825.4,225.0 L 827.6,225.0 L 829.8,220.3 L 832.0,225.0 L 834.2,225.0 L 836.4,225.0 L 838.6,225.0 L 840.8,225.0 L 843.0,206.0 L 845.2,218.7 L 847.4,215.5 L 849.6,212.3 L 851.8,221.8 L 854.0,225.0 L 854.0,225 Z" fill="#1a1a1a" fill-opacity="0.2"/>
  <path d="M 65.2,225.0 L 67.4,225.0 L 69.6,225.0 L 71.8,224.8 L 74.0,224.8 L 76.2,224.5 L 78.4,224.5 L 80.6,224.3 L 82.8,224.3 L 85.0,224.3 L 87.2,224.5 L 89.4,223.0 L 91.6,222.3 L 93.7,221.4 L 95.9,221.6 L 98.1,220.7 L 100.3,220.7 L 102.5,220.7 L 104.7,222.3 L 106.9,223.2 L 109.1,224.1 L 111.3,224.1 L 113.5,225.0 L 115.7,224.5 L 117.9,224.5 L 120.1,224.5 L 122.3,224.5 L 124.5,223.4 L 126.7,222.5 L 128.9,222.5 L 131.1,222.7 L 133.3,222.7 L 135.5,222.7 L 137.7,222.7 L 139.9,223.9 L 142.1,224.8 L 144.3,224.8 L 146.5,225.0 L 148.7,224.5 L 150.9,224.5 L 153.1,224.5 L 155.3,224.5 L 157.5,224.3 L 159.7,224.3 L 161.9,224.3 L 164.1,224.3 L 166.3,221.2 L 168.5,219.8 L 170.7,218.9 L 172.8,217.8 L 175.0,214.8 L 177.2,208.0 L 179.4,204.2 L 181.6,207.4 L 183.8,205.5 L 186.0,202.4 L 188.2,199.9 L 190.4,201.3 L 192.6,207.6 L 194.8,211.2 L 197.0,210.5 L 199.2,211.0 L 201.4,215.0 L 203.6,218.9 L 205.8,220.5 L 208.0,220.9 L 210.2,221.6 L 212.4,222.3 L 214.6,225.0 L 216.8,225.0 L 219.0,225.0 L 221.2,225.0 L 223.4,225.0 L 225.6,225.0 L 227.8,225.0 L 230.0,223.9 L 232.2,223.9 L 234.4,223.9 L 236.6,223.9 L 238.8,223.9 L 241.0,223.9 L 243.2,223.9 L 245.4,225.0 L 247.6,225.0 L 249.8,224.8 L 252.0,224.5 L 254.1,224.1 L 256.3,224.1 L 258.5,223.0 L 260.7,223.0 L 262.9,222.5 L 265.1,221.8 L 267.3,220.3 L 269.5,220.3 L 271.7,218.9 L 273.9,220.0 L 276.1,217.3 L 278.3,217.1 L 280.5,216.0 L 282.7,215.3 L 284.9,213.5 L 287.1,213.9 L 289.3,212.6 L 291.5,214.8 L 293.7,215.5 L 295.9,213.9 L 298.1,213.7 L 300.3,214.8 L 302.5,212.6 L 304.7,211.9 L 306.9,211.0 L 309.1,211.0 L 311.3,214.6 L 313.5,217.3 L 315.7,218.4 L 317.9,221.6 L 320.1,223.4 L 322.3,223.9 L 324.5,223.4 L 326.7,221.6 L 328.9,215.3 L 331.1,214.6 L 333.2,214.6 L 335.4,214.8 L 337.6,215.7 L 339.8,216.2 L 342.0,218.0 L 344.2,224.3 L 346.4,225.0 L 348.6,222.3 L 350.8,222.3 L 353.0,222.3 L 355.2,222.3 L 357.4,222.1 L 359.6,221.4 L 361.8,221.4 L 364.0,224.1 L 366.2,224.1 L 368.4,224.1 L 370.6,224.1 L 372.8,224.3 L 375.0,225.0 L 377.2,223.2 L 379.4,218.9 L 381.6,218.7 L 383.8,218.0 L 386.0,217.8 L 388.2,217.8 L 390.4,217.8 L 392.6,219.6 L 394.8,216.0 L 397.0,215.5 L 399.2,216.2 L 401.4,216.0 L 403.6,216.0 L 405.8,214.4 L 408.0,206.0 L 410.2,213.2 L 412.4,212.6 L 414.5,209.2 L 416.7,200.1 L 418.9,187.2 L 421.1,182.0 L 423.3,186.1 L 425.5,179.5 L 427.7,176.8 L 429.9,168.7 L 432.1,173.2 L 434.3,186.1 L 436.5,192.9 L 438.7,196.0 L 440.9,203.3 L 443.1,207.4 L 445.3,218.9 L 447.5,223.9 L 449.7,223.9 L 451.9,223.9 L 454.1,221.6 L 456.3,217.1 L 458.5,212.3 L 460.7,206.7 L 462.9,206.2 L 465.1,205.1 L 467.3,203.5 L 469.5,205.5 L 471.7,209.8 L 473.9,208.3 L 476.1,211.7 L 478.3,210.1 L 480.5,211.2 L 482.7,211.7 L 484.9,211.4 L 487.1,207.8 L 489.3,213.0 L 491.5,215.3 L 493.6,214.4 L 495.8,210.5 L 498.0,209.4 L 500.2,211.0 L 502.4,212.8 L 504.6,212.1 L 506.8,211.9 L 509.0,214.8 L 511.2,218.7 L 513.4,220.9 L 515.6,220.9 L 517.8,223.0 L 520.0,224.8 L 522.2,222.3 L 524.4,222.3 L 526.6,220.9 L 528.8,220.7 L 531.0,220.0 L 533.2,219.8 L 535.4,219.8 L 537.6,222.5 L 539.8,222.5 L 542.0,223.9 L 544.2,224.1 L 546.4,224.8 L 548.6,225.0 L 550.8,223.4 L 553.0,222.3 L 555.2,222.3 L 557.4,222.3 L 559.6,222.3 L 561.8,221.2 L 564.0,221.2 L 566.2,222.7 L 568.4,223.4 L 570.6,223.4 L 572.8,223.4 L 574.9,222.5 L 577.1,223.4 L 579.3,222.5 L 581.5,222.1 L 583.7,222.5 L 585.9,220.3 L 588.1,217.3 L 590.3,214.4 L 592.5,212.6 L 594.7,213.5 L 596.9,210.3 L 599.1,208.7 L 601.3,211.0 L 603.5,213.9 L 605.7,217.8 L 607.9,219.8 L 610.1,219.8 L 612.3,222.7 L 614.5,224.3 L 616.7,223.9 L 618.9,223.9 L 621.1,223.2 L 623.3,218.2 L 625.5,218.2 L 627.7,218.9 L 629.9,218.9 L 632.1,219.3 L 634.3,219.3 L 636.5,220.0 L 638.7,225.0 L 640.9,223.6 L 643.1,223.6 L 645.3,223.6 L 647.5,223.6 L 649.7,223.6 L 651.9,220.7 L 654.0,220.7 L 656.2,222.1 L 658.4,222.1 L 660.6,222.1 L 662.8,222.1 L 665.0,222.1 L 667.2,225.0 L 669.4,225.0 L 671.6,225.0 L 673.8,225.0 L 676.0,224.8 L 678.2,224.8 L 680.4,224.8 L 682.6,224.8 L 684.8,224.8 L 687.0,224.8 L 689.2,224.8 L 691.4,225.0 L 693.6,225.0 L 695.8,225.0 L 698.0,225.0 L 700.2,225.0 L 702.4,225.0 L 704.6,224.8 L 706.8,224.8 L 709.0,224.8 L 711.2,224.5 L 713.4,224.5 L 715.6,224.5 L 717.8,224.5 L 720.0,224.8 L 722.2,224.5 L 724.4,224.5 L 726.6,224.8 L 728.8,221.4 L 731.0,221.2 L 733.2,219.8 L 735.3,218.0 L 737.5,217.1 L 739.7,215.3 L 741.9,212.6 L 744.1,212.6 L 746.3,211.9 L 748.5,212.8 L 750.7,213.0 L 752.9,212.8 L 755.1,214.6 L 757.3,217.3 L 759.5,220.7 L 761.7,221.6 L 763.9,222.1 L 766.1,222.5 L 768.3,223.9 L 770.5,223.9 L 772.7,223.9 L 774.9,222.5 L 777.1,222.3 L 779.3,222.3 L 781.5,223.4 L 783.7,223.4 L 785.9,223.4 L 788.1,223.4 L 790.3,224.8 L 792.5,224.3 L 794.7,224.3 L 796.9,224.3 L 799.1,224.3 L 801.3,224.3 L 803.5,224.3 L 805.7,224.1 L 807.9,224.8 L 810.1,224.8 L 812.3,224.5 L 814.4,223.2 L 816.6,222.7 L 818.8,222.3 L 821.0,222.3 L 823.2,222.3 L 825.4,222.3 L 827.6,222.5 L 829.8,223.2 L 832.0,223.6 L 834.2,224.1 L 836.4,224.3 L 838.6,224.3 L 840.8,224.3 L 843.0,221.6 L 845.2,221.4 L 847.4,220.0 L 849.6,218.2 L 851.8,217.8 L 854.0,217.8" fill="none" stroke="#b3121a" stroke-opacity="0.85" stroke-width="1.6" stroke-linejoin="round"/>
  <line x1="69.6" y1="225" x2="69.6" y2="229" stroke="#1a1a1a" stroke-opacity="0.4"/>
  <text x="69.6" y="240" text-anchor="middle" font-family="'Helvetica Neue',Helvetica,Arial,sans-serif" font-size="7.5" letter-spacing="0.6" fill="#5b5344">SEP</text>
  <line x1="135.5" y1="225" x2="135.5" y2="229" stroke="#1a1a1a" stroke-opacity="0.4"/>
  <text x="135.5" y="240" text-anchor="middle" font-family="'Helvetica Neue',Helvetica,Arial,sans-serif" font-size="7.5" letter-spacing="0.6" fill="#5b5344">OCT</text>
  <line x1="203.6" y1="225" x2="203.6" y2="229" stroke="#1a1a1a" stroke-opacity="0.4"/>
  <text x="203.6" y="240" text-anchor="middle" font-family="'Helvetica Neue',Helvetica,Arial,sans-serif" font-size="7.5" letter-spacing="0.6" fill="#5b5344">NOV</text>
  <line x1="269.5" y1="225" x2="269.5" y2="229" stroke="#1a1a1a" stroke-opacity="0.4"/>
  <text x="269.5" y="240" text-anchor="middle" font-family="'Helvetica Neue',Helvetica,Arial,sans-serif" font-size="7.5" letter-spacing="0.6" fill="#5b5344">DEC</text>
  <line x1="337.6" y1="225" x2="337.6" y2="229" stroke="#1a1a1a" stroke-opacity="0.4"/>
  <text x="337.6" y="240" text-anchor="middle" font-family="'Helvetica Neue',Helvetica,Arial,sans-serif" font-size="7.5" letter-spacing="0.6" fill="#5b5344">JAN</text>
  <line x1="405.8" y1="225" x2="405.8" y2="229" stroke="#1a1a1a" stroke-opacity="0.4"/>
  <text x="405.8" y="240" text-anchor="middle" font-family="'Helvetica Neue',Helvetica,Arial,sans-serif" font-size="7.5" letter-spacing="0.6" fill="#5b5344">FEB</text>
  <line x1="467.3" y1="225" x2="467.3" y2="229" stroke="#1a1a1a" stroke-opacity="0.4"/>
  <text x="467.3" y="240" text-anchor="middle" font-family="'Helvetica Neue',Helvetica,Arial,sans-serif" font-size="7.5" letter-spacing="0.6" fill="#5b5344">MAR</text>
  <line x1="535.4" y1="225" x2="535.4" y2="229" stroke="#1a1a1a" stroke-opacity="0.4"/>
  <text x="535.4" y="240" text-anchor="middle" font-family="'Helvetica Neue',Helvetica,Arial,sans-serif" font-size="7.5" letter-spacing="0.6" fill="#5b5344">APR</text>
  <line x1="601.3" y1="225" x2="601.3" y2="229" stroke="#1a1a1a" stroke-opacity="0.4"/>
  <text x="601.3" y="240" text-anchor="middle" font-family="'Helvetica Neue',Helvetica,Arial,sans-serif" font-size="7.5" letter-spacing="0.6" fill="#5b5344">MAY</text>
  <line x1="669.4" y1="225" x2="669.4" y2="229" stroke="#1a1a1a" stroke-opacity="0.4"/>
  <text x="669.4" y="240" text-anchor="middle" font-family="'Helvetica Neue',Helvetica,Arial,sans-serif" font-size="7.5" letter-spacing="0.6" fill="#5b5344">JUN</text>
  <line x1="735.3" y1="225" x2="735.3" y2="229" stroke="#1a1a1a" stroke-opacity="0.4"/>
  <text x="735.3" y="240" text-anchor="middle" font-family="'Helvetica Neue',Helvetica,Arial,sans-serif" font-size="7.5" letter-spacing="0.6" fill="#5b5344">JUL</text>
  <line x1="803.5" y1="225" x2="803.5" y2="229" stroke="#1a1a1a" stroke-opacity="0.4"/>
  <text x="803.5" y="240" text-anchor="middle" font-family="'Helvetica Neue',Helvetica,Arial,sans-serif" font-size="7.5" letter-spacing="0.6" fill="#5b5344">AUG</text>
  <circle cx="418.9" cy="134.8" r="3" fill="none" stroke="#b3121a" stroke-width="1.4"/>
  <text x="426.9" y="137.8" text-anchor="start" font-family="'Helvetica Neue',Helvetica,Arial,sans-serif" font-size="7.5" letter-spacing="0.6" fill="#b3121a">HIGH 57 · FEB 7 2026</text>
  <text x="854" y="126" text-anchor="end" font-family="'Helvetica Neue',Helvetica,Arial,sans-serif" font-size="7" letter-spacing="0.6" fill="#5b5344">RED LINE: 7-DAY MOVING AVERAGE</text>
  <line x1="18" y1="248" x2="862" y2="248" stroke="#1a1a1a" stroke-opacity="0.45" stroke-width="1"/>
  <text x="110" y="261" text-anchor="middle" font-family="'Helvetica Neue',Helvetica,Arial,sans-serif" font-size="8" letter-spacing="1" fill="#5b5344">SESSION HIGH</text>
  <text x="110" y="275" text-anchor="middle" font-family="Georgia,'Times New Roman',Times,serif" font-size="13" font-weight="bold" fill="#1a1a1a">57</text>
  <text x="330" y="261" text-anchor="middle" font-family="'Helvetica Neue',Helvetica,Arial,sans-serif" font-size="8" letter-spacing="1" fill="#5b5344">DAILY AVERAGE</text>
  <text x="330" y="275" text-anchor="middle" font-family="Georgia,'Times New Roman',Times,serif" font-size="13" font-weight="bold" fill="#1a1a1a">3.9</text>
  <text x="550" y="261" text-anchor="middle" font-family="'Helvetica Neue',Helvetica,Arial,sans-serif" font-size="8" letter-spacing="1" fill="#5b5344">ACTIVE SESSIONS</text>
  <text x="550" y="275" text-anchor="middle" font-family="Georgia,'Times New Roman',Times,serif" font-size="13" font-weight="bold" fill="#1a1a1a">163 / 366</text>
  <text x="770" y="261" text-anchor="middle" font-family="'Helvetica Neue',Helvetica,Arial,sans-serif" font-size="8" letter-spacing="1" fill="#5b5344">BUSIEST MONTH</text>
  <text x="770" y="275" text-anchor="middle" font-family="Georgia,'Times New Roman',Times,serif" font-size="13" font-weight="bold" fill="#1a1a1a">FEB 2026</text>
</svg>
