<svg xmlns="http://www.w3.org/2000/svg" width="880" height="290" viewBox="0 0 880 290" role="img" aria-label="Daily Bugle daily contribution chart for Kiko915">
  <rect width="880" height="290" rx="6" fill="#ece5d3"/>
  <rect x="0.5" y="0.5" width="879" height="289" rx="6" fill="none" stroke="#1a1a1a" stroke-opacity="0.35"/>
  <rect x="8" y="8" width="864" height="274" fill="none" stroke="#1a1a1a" stroke-opacity="0.18"/>
  <line x1="18" y1="26" x2="862" y2="26" stroke="#1a1a1a" stroke-opacity="0.75" stroke-width="2.5"/>
  <line x1="18" y1="30" x2="862" y2="30" stroke="#1a1a1a" stroke-opacity="0.75" stroke-width="1"/>
  <text x="440" y="54" text-anchor="middle" font-family="Georgia,'Times New Roman',Times,serif" font-size="26" font-weight="bold" letter-spacing="1.5" fill="#1a1a1a">THE COMMIT EXCHANGE</text>
  <line x1="18" y1="64" x2="862" y2="64" stroke="#1a1a1a" stroke-opacity="0.75" stroke-width="1"/>
  <line x1="18" y1="68" x2="862" y2="68" stroke="#1a1a1a" stroke-opacity="0.75" stroke-width="2.5"/>
  <text x="440" y="82" text-anchor="middle" font-family="'Helvetica Neue',Helvetica,Arial,sans-serif" font-size="8.5" letter-spacing="1.6" fill="#5b5344">MARKET DESK  ·  DAILY TRADING IN COMMITS  ·  52 WEEKS</text>
  <line x1="18" y1="90" x2="862" y2="90" stroke="#1a1a1a" stroke-opacity="0.45" stroke-width="1"/>
  <text x="440" y="110" text-anchor="middle" font-family="Georgia,'Times New Roman',Times,serif" font-size="12" font-weight="bold" fill="#b3121a">HIGH OF 57 IN A SINGLE SESSION  ·  168 SESSIONS TRADED</text>
  <line x1="18" y1="118" x2="862" y2="118" stroke="#1a1a1a" stroke-opacity="0.45" stroke-width="1"/>
  <line x1="52" y1="225.0" x2="854" y2="225.0" stroke="#1a1a1a" stroke-opacity="0.5"/>
  <text x="44" y="228.0" text-anchor="end" font-family="'Helvetica Neue',Helvetica,Arial,sans-serif" font-size="7.5" fill="#5b5344">0</text>
  <line x1="52" y1="209.2" x2="854" y2="209.2" stroke="#1a1a1a" stroke-opacity="0.13"/>
  <text x="44" y="212.2" text-anchor="end" font-family="'Helvetica Neue',Helvetica,Arial,sans-serif" font-size="7.5" fill="#5b5344">10</text>
  <line x1="52" y1="193.3" x2="854" y2="193.3" stroke="#1a1a1a" stroke-opacity="0.13"/>
  <text x="44" y="196.3" text-anchor="end" font-family="'Helvetica Neue',Helvetica,Arial,sans-serif" font-size="7.5" fill="#5b5344">20</text>
  <line x1="52" y1="177.5" x2="854" y2="177.5" stroke="#1a1a1a" stroke-opacity="0.13"/>
  <text x="44" y="180.5" text-anchor="end" font-family="'Helvetica Neue',Helvetica,Arial,sans-serif" font-size="7.5" fill="#5b5344">30</text>
  <line x1="52" y1="161.7" x2="854" y2="161.7" stroke="#1a1a1a" stroke-opacity="0.13"/>
  <text x="44" y="164.7" text-anchor="end" font-family="'Helvetica Neue',Helvetica,Arial,sans-serif" font-size="7.5" fill="#5b5344">40</text>
  <line x1="52" y1="145.8" x2="854" y2="145.8" stroke="#1a1a1a" stroke-opacity="0.13"/>
  <text x="44" y="148.8" text-anchor="end" font-family="'Helvetica Neue',Helvetica,Arial,sans-serif" font-size="7.5" fill="#5b5344">50</text>
  <line x1="52" y1="130.0" x2="854" y2="130.0" stroke="#1a1a1a" stroke-opacity="0.13"/>
  <text x="44" y="133.0" text-anchor="end" font-family="'Helvetica Neue',Helvetica,Arial,sans-serif" font-size="7.5" fill="#5b5344">60</text>
  <path d="M 52.0,225 L 52.0,225.0 L 54.2,223.4 L 56.3,225.0 L 58.5,225.0 L 60.7,225.0 L 62.8,225.0 L 65.0,225.0 L 67.2,225.0 L 69.3,225.0 L 71.5,221.8 L 73.7,225.0 L 75.8,225.0 L 78.0,225.0 L 80.2,223.4 L 82.3,225.0 L 84.5,225.0 L 86.7,221.8 L 88.8,202.8 L 91.0,215.5 L 93.2,218.7 L 95.4,215.5 L 97.5,204.4 L 99.7,177.5 L 101.9,194.9 L 104.0,225.0 L 106.2,202.8 L 108.4,196.5 L 110.5,198.1 L 112.7,213.9 L 114.9,221.8 L 117.0,220.3 L 119.2,220.3 L 121.4,206.0 L 123.5,225.0 L 125.7,225.0 L 127.9,225.0 L 130.0,225.0 L 132.2,225.0 L 134.4,225.0 L 136.5,225.0 L 138.7,225.0 L 140.9,225.0 L 143.0,225.0 L 145.2,225.0 L 147.4,225.0 L 149.5,225.0 L 151.7,217.1 L 153.9,225.0 L 156.0,225.0 L 158.2,225.0 L 160.4,225.0 L 162.5,225.0 L 164.7,225.0 L 166.9,225.0 L 169.0,225.0 L 171.2,223.4 L 173.4,223.4 L 175.6,221.8 L 177.7,225.0 L 179.9,217.1 L 182.1,225.0 L 184.2,221.8 L 186.4,218.7 L 188.6,212.3 L 190.7,221.8 L 192.9,215.5 L 195.1,225.0 L 197.2,206.0 L 199.4,220.3 L 201.6,210.8 L 203.7,207.6 L 205.9,209.2 L 208.1,218.7 L 210.2,215.5 L 212.4,221.8 L 214.6,225.0 L 216.7,199.7 L 218.9,206.0 L 221.1,217.1 L 223.2,202.8 L 225.4,210.8 L 227.6,215.5 L 229.7,225.0 L 231.9,225.0 L 234.1,225.0 L 236.2,225.0 L 238.4,225.0 L 240.6,223.4 L 242.7,218.7 L 244.9,221.8 L 247.1,212.3 L 249.2,180.7 L 251.4,220.3 L 253.6,225.0 L 255.8,225.0 L 257.9,225.0 L 260.1,225.0 L 262.3,225.0 L 264.4,225.0 L 266.6,225.0 L 268.8,206.0 L 270.9,225.0 L 273.1,225.0 L 275.3,225.0 L 277.4,223.4 L 279.6,220.3 L 281.8,225.0 L 283.9,225.0 L 286.1,225.0 L 288.3,225.0 L 290.4,225.0 L 292.6,225.0 L 294.8,225.0 L 296.9,212.3 L 299.1,194.9 L 301.3,223.4 L 303.4,220.3 L 305.6,223.4 L 307.8,225.0 L 309.9,225.0 L 312.1,225.0 L 314.3,169.6 L 316.4,220.3 L 318.6,225.0 L 320.8,221.8 L 322.9,225.0 L 325.1,213.9 L 327.3,166.4 L 329.4,220.3 L 331.6,215.5 L 333.8,201.3 L 336.0,158.5 L 338.1,134.8 L 340.3,177.5 L 342.5,194.9 L 344.6,174.3 L 346.8,196.5 L 349.0,144.3 L 351.1,190.2 L 353.3,225.0 L 355.5,225.0 L 357.6,217.1 L 359.8,225.0 L 362.0,225.0 L 364.1,225.0 L 366.3,225.0 L 368.5,225.0 L 370.6,225.0 L 372.8,201.3 L 375.0,193.3 L 377.1,191.8 L 379.3,185.4 L 381.5,221.8 L 383.6,217.1 L 385.8,213.9 L 388.0,215.5 L 390.1,223.4 L 392.3,180.7 L 394.5,209.2 L 396.6,210.8 L 398.8,225.0 L 401.0,217.1 L 403.1,213.9 L 405.3,198.1 L 407.5,217.1 L 409.6,225.0 L 411.8,204.4 L 414.0,198.1 L 416.2,209.2 L 418.3,225.0 L 420.5,210.8 L 422.7,212.3 L 424.8,223.4 L 427.0,225.0 L 429.2,225.0 L 431.3,225.0 L 433.5,225.0 L 435.7,225.0 L 437.8,225.0 L 440.0,206.0 L 442.2,225.0 L 444.3,215.5 L 446.5,223.4 L 448.7,220.3 L 450.8,223.4 L 453.0,225.0 L 455.2,225.0 L 457.3,225.0 L 459.5,225.0 L 461.7,225.0 L 463.8,225.0 L 466.0,225.0 L 468.2,213.9 L 470.3,217.1 L 472.5,225.0 L 474.7,225.0 L 476.8,225.0 L 479.0,217.1 L 481.2,225.0 L 483.3,225.0 L 485.5,221.8 L 487.7,225.0 L 489.8,225.0 L 492.0,218.7 L 494.2,223.4 L 496.4,218.7 L 498.5,221.8 L 500.7,225.0 L 502.9,209.2 L 505.0,204.4 L 507.2,198.1 L 509.4,210.8 L 511.5,225.0 L 513.7,199.7 L 515.9,213.9 L 518.0,225.0 L 520.2,225.0 L 522.4,225.0 L 524.5,225.0 L 526.7,225.0 L 528.9,220.3 L 531.0,225.0 L 533.2,221.8 L 535.4,225.0 L 537.5,220.3 L 539.7,190.2 L 541.9,225.0 L 544.0,225.0 L 546.2,225.0 L 548.4,225.0 L 550.5,225.0 L 552.7,225.0 L 554.9,225.0 L 557.0,215.5 L 559.2,225.0 L 561.4,225.0 L 563.5,225.0 L 565.7,225.0 L 567.9,204.4 L 570.0,225.0 L 572.2,225.0 L 574.4,225.0 L 576.6,225.0 L 578.7,225.0 L 580.9,225.0 L 583.1,225.0 L 585.2,225.0 L 587.4,225.0 L 589.6,225.0 L 591.7,223.4 L 593.9,225.0 L 596.1,225.0 L 598.2,225.0 L 600.4,225.0 L 602.6,225.0 L 604.7,225.0 L 606.9,225.0 L 609.1,225.0 L 611.2,225.0 L 613.4,225.0 L 615.6,225.0 L 617.7,225.0 L 619.9,223.4 L 622.1,225.0 L 624.2,225.0 L 626.4,223.4 L 628.6,225.0 L 630.7,225.0 L 632.9,225.0 L 635.1,225.0 L 637.2,223.4 L 639.4,225.0 L 641.6,225.0 L 643.7,201.3 L 645.9,223.4 L 648.1,215.5 L 650.2,212.3 L 652.4,217.1 L 654.6,212.3 L 656.8,206.0 L 658.9,201.3 L 661.1,218.7 L 663.3,221.8 L 665.4,213.9 L 667.6,215.5 L 669.8,225.0 L 671.9,225.0 L 674.1,225.0 L 676.3,225.0 L 678.4,225.0 L 680.6,217.1 L 682.8,225.0 L 684.9,225.0 L 687.1,225.0 L 689.3,215.5 L 691.4,223.4 L 693.6,225.0 L 695.8,225.0 L 697.9,225.0 L 700.1,225.0 L 702.3,225.0 L 704.4,225.0 L 706.6,220.3 L 708.8,225.0 L 710.9,225.0 L 713.1,225.0 L 715.3,225.0 L 717.4,225.0 L 719.6,223.4 L 721.8,225.0 L 723.9,225.0 L 726.1,223.4 L 728.3,215.5 L 730.4,221.8 L 732.6,221.8 L 734.8,223.4 L 737.0,225.0 L 739.1,225.0 L 741.3,225.0 L 743.5,220.3 L 745.6,225.0 L 747.8,225.0 L 750.0,225.0 L 752.1,225.0 L 754.3,225.0 L 756.5,206.0 L 758.6,218.7 L 760.8,215.5 L 763.0,212.3 L 765.1,221.8 L 767.3,225.0 L 769.5,225.0 L 771.6,225.0 L 773.8,225.0 L 776.0,213.9 L 778.1,225.0 L 780.3,225.0 L 782.5,225.0 L 784.6,225.0 L 786.8,225.0 L 789.0,225.0 L 791.1,225.0 L 793.3,223.4 L 795.5,217.1 L 797.6,202.8 L 799.8,225.0 L 802.0,215.5 L 804.1,213.9 L 806.3,210.8 L 808.5,207.6 L 810.6,190.2 L 812.8,215.5 L 815.0,225.0 L 817.2,218.7 L 819.3,225.0 L 821.5,225.0 L 823.7,225.0 L 825.8,225.0 L 828.0,225.0 L 830.2,225.0 L 832.3,225.0 L 834.5,225.0 L 836.7,225.0 L 838.8,221.8 L 841.0,223.4 L 843.2,218.7 L 845.3,220.3 L 847.5,225.0 L 849.7,225.0 L 851.8,225.0 L 854.0,225.0 L 854.0,225 Z" fill="#1a1a1a" fill-opacity="0.2"/>
  <path d="M 65.0,224.8 L 67.2,224.8 L 69.3,225.0 L 71.5,224.5 L 73.7,224.5 L 75.8,224.5 L 78.0,224.5 L 80.2,224.3 L 82.3,224.3 L 84.5,224.3 L 86.7,224.3 L 88.8,221.2 L 91.0,219.8 L 93.2,218.9 L 95.4,217.8 L 97.5,214.8 L 99.7,208.0 L 101.9,204.2 L 104.0,207.4 L 106.2,205.5 L 108.4,202.4 L 110.5,199.9 L 112.7,201.3 L 114.9,207.6 L 117.0,211.2 L 119.2,210.5 L 121.4,211.0 L 123.5,215.0 L 125.7,218.9 L 127.9,220.5 L 130.0,220.9 L 132.2,221.6 L 134.4,222.3 L 136.5,225.0 L 138.7,225.0 L 140.9,225.0 L 143.0,225.0 L 145.2,225.0 L 147.4,225.0 L 149.5,225.0 L 151.7,223.9 L 153.9,223.9 L 156.0,223.9 L 158.2,223.9 L 160.4,223.9 L 162.5,223.9 L 164.7,223.9 L 166.9,225.0 L 169.0,225.0 L 171.2,224.8 L 173.4,224.5 L 175.6,224.1 L 177.7,224.1 L 179.9,223.0 L 182.1,223.0 L 184.2,222.5 L 186.4,221.8 L 188.6,220.3 L 190.7,220.3 L 192.9,218.9 L 195.1,220.0 L 197.2,217.3 L 199.4,217.1 L 201.6,216.0 L 203.7,215.3 L 205.9,213.5 L 208.1,213.9 L 210.2,212.6 L 212.4,214.8 L 214.6,215.5 L 216.7,213.9 L 218.9,213.7 L 221.1,214.8 L 223.2,212.6 L 225.4,211.9 L 227.6,211.0 L 229.7,211.0 L 231.9,214.6 L 234.1,217.3 L 236.2,218.4 L 238.4,221.6 L 240.6,223.4 L 242.7,223.9 L 244.9,223.4 L 247.1,221.6 L 249.2,215.3 L 251.4,214.6 L 253.6,214.6 L 255.8,214.8 L 257.9,215.7 L 260.1,216.2 L 262.3,218.0 L 264.4,224.3 L 266.6,225.0 L 268.8,222.3 L 270.9,222.3 L 273.1,222.3 L 275.3,222.3 L 277.4,222.1 L 279.6,221.4 L 281.8,221.4 L 283.9,224.1 L 286.1,224.1 L 288.3,224.1 L 290.4,224.1 L 292.6,224.3 L 294.8,225.0 L 296.9,223.2 L 299.1,218.9 L 301.3,218.7 L 303.4,218.0 L 305.6,217.8 L 307.8,217.8 L 309.9,217.8 L 312.1,219.6 L 314.3,216.0 L 316.4,215.5 L 318.6,216.2 L 320.8,216.0 L 322.9,216.0 L 325.1,214.4 L 327.3,206.0 L 329.4,213.2 L 331.6,212.6 L 333.8,209.2 L 336.0,200.1 L 338.1,187.2 L 340.3,182.0 L 342.5,186.1 L 344.6,179.5 L 346.8,176.8 L 349.0,168.7 L 351.1,173.2 L 353.3,186.1 L 355.5,192.9 L 357.6,196.0 L 359.8,203.3 L 362.0,207.4 L 364.1,218.9 L 366.3,223.9 L 368.5,223.9 L 370.6,223.9 L 372.8,221.6 L 375.0,217.1 L 377.1,212.3 L 379.3,206.7 L 381.5,206.2 L 383.6,205.1 L 385.8,203.5 L 388.0,205.5 L 390.1,209.8 L 392.3,208.3 L 394.5,211.7 L 396.6,210.1 L 398.8,211.2 L 401.0,211.7 L 403.1,211.4 L 405.3,207.8 L 407.5,213.0 L 409.6,215.3 L 411.8,214.4 L 414.0,210.5 L 416.2,209.4 L 418.3,211.0 L 420.5,212.8 L 422.7,212.1 L 424.8,211.9 L 427.0,214.8 L 429.2,218.7 L 431.3,220.9 L 433.5,220.9 L 435.7,223.0 L 437.8,224.8 L 440.0,222.3 L 442.2,222.3 L 444.3,220.9 L 446.5,220.7 L 448.7,220.0 L 450.8,219.8 L 453.0,219.8 L 455.2,222.5 L 457.3,222.5 L 459.5,223.9 L 461.7,224.1 L 463.8,224.8 L 466.0,225.0 L 468.2,223.4 L 470.3,222.3 L 472.5,222.3 L 474.7,222.3 L 476.8,222.3 L 479.0,221.2 L 481.2,221.2 L 483.3,222.7 L 485.5,223.4 L 487.7,223.4 L 489.8,223.4 L 492.0,222.5 L 494.2,223.4 L 496.4,222.5 L 498.5,222.1 L 500.7,222.5 L 502.9,220.3 L 505.0,217.3 L 507.2,214.4 L 509.4,212.6 L 511.5,213.5 L 513.7,210.3 L 515.9,208.7 L 518.0,211.0 L 520.2,213.9 L 522.4,217.8 L 524.5,219.8 L 526.7,219.8 L 528.9,222.7 L 531.0,224.3 L 533.2,223.9 L 535.4,223.9 L 537.5,223.2 L 539.7,218.2 L 541.9,218.2 L 544.0,218.9 L 546.2,218.9 L 548.4,219.3 L 550.5,219.3 L 552.7,220.0 L 554.9,225.0 L 557.0,223.6 L 559.2,223.6 L 561.4,223.6 L 563.5,223.6 L 565.7,223.6 L 567.9,220.7 L 570.0,220.7 L 572.2,222.1 L 574.4,222.1 L 576.6,222.1 L 578.7,222.1 L 580.9,222.1 L 583.1,225.0 L 585.2,225.0 L 587.4,225.0 L 589.6,225.0 L 591.7,224.8 L 593.9,224.8 L 596.1,224.8 L 598.2,224.8 L 600.4,224.8 L 602.6,224.8 L 604.7,224.8 L 606.9,225.0 L 609.1,225.0 L 611.2,225.0 L 613.4,225.0 L 615.6,225.0 L 617.7,225.0 L 619.9,224.8 L 622.1,224.8 L 624.2,224.8 L 626.4,224.5 L 628.6,224.5 L 630.7,224.5 L 632.9,224.5 L 635.1,224.8 L 637.2,224.5 L 639.4,224.5 L 641.6,224.8 L 643.7,221.4 L 645.9,221.2 L 648.1,219.8 L 650.2,218.0 L 652.4,217.1 L 654.6,215.3 L 656.8,212.6 L 658.9,212.6 L 661.1,211.9 L 663.3,212.8 L 665.4,213.0 L 667.6,212.8 L 669.8,214.6 L 671.9,217.3 L 674.1,220.7 L 676.3,221.6 L 678.4,222.1 L 680.6,222.5 L 682.8,223.9 L 684.9,223.9 L 687.1,223.9 L 689.3,222.5 L 691.4,222.3 L 693.6,222.3 L 695.8,223.4 L 697.9,223.4 L 700.1,223.4 L 702.3,223.4 L 704.4,224.8 L 706.6,224.3 L 708.8,224.3 L 710.9,224.3 L 713.1,224.3 L 715.3,224.3 L 717.4,224.3 L 719.6,224.1 L 721.8,224.8 L 723.9,224.8 L 726.1,224.5 L 728.3,223.2 L 730.4,222.7 L 732.6,222.3 L 734.8,222.3 L 737.0,222.3 L 739.1,222.3 L 741.3,222.5 L 743.5,223.2 L 745.6,223.6 L 747.8,224.1 L 750.0,224.3 L 752.1,224.3 L 754.3,224.3 L 756.5,221.6 L 758.6,221.4 L 760.8,220.0 L 763.0,218.2 L 765.1,217.8 L 767.3,217.8 L 769.5,217.8 L 771.6,220.5 L 773.8,221.4 L 776.0,221.2 L 778.1,223.0 L 780.3,223.4 L 782.5,223.4 L 784.6,223.4 L 786.8,223.4 L 789.0,223.4 L 791.1,225.0 L 793.3,224.8 L 795.5,223.6 L 797.6,220.5 L 799.8,220.5 L 802.0,219.1 L 804.1,217.5 L 806.3,215.5 L 808.5,213.2 L 810.6,209.4 L 812.8,211.2 L 815.0,211.2 L 817.2,211.7 L 819.3,213.2 L 821.5,215.3 L 823.7,217.8 L 825.8,222.7 L 828.0,224.1 L 830.2,224.1 L 832.3,225.0 L 834.5,225.0 L 836.7,225.0 L 838.8,224.5 L 841.0,224.3 L 843.2,223.4 L 845.3,222.7 L 847.5,222.7 L 849.7,222.7 L 851.8,222.7 L 854.0,223.2" fill="none" stroke="#b3121a" stroke-opacity="0.85" stroke-width="1.6" stroke-linejoin="round"/>
  <line x1="58.5" y1="225" x2="58.5" y2="229" stroke="#1a1a1a" stroke-opacity="0.4"/>
  <text x="58.5" y="240" text-anchor="middle" font-family="'Helvetica Neue',Helvetica,Arial,sans-serif" font-size="7.5" letter-spacing="0.6" fill="#5b5344">OCT</text>
  <line x1="125.7" y1="225" x2="125.7" y2="229" stroke="#1a1a1a" stroke-opacity="0.4"/>
  <text x="125.7" y="240" text-anchor="middle" font-family="'Helvetica Neue',Helvetica,Arial,sans-serif" font-size="7.5" letter-spacing="0.6" fill="#5b5344">NOV</text>
  <line x1="190.7" y1="225" x2="190.7" y2="229" stroke="#1a1a1a" stroke-opacity="0.4"/>
  <text x="190.7" y="240" text-anchor="middle" font-family="'Helvetica Neue',Helvetica,Arial,sans-serif" font-size="7.5" letter-spacing="0.6" fill="#5b5344">DEC</text>
  <line x1="257.9" y1="225" x2="257.9" y2="229" stroke="#1a1a1a" stroke-opacity="0.4"/>
  <text x="257.9" y="240" text-anchor="middle" font-family="'Helvetica Neue',Helvetica,Arial,sans-serif" font-size="7.5" letter-spacing="0.6" fill="#5b5344">JAN</text>
  <line x1="325.1" y1="225" x2="325.1" y2="229" stroke="#1a1a1a" stroke-opacity="0.4"/>
  <text x="325.1" y="240" text-anchor="middle" font-family="'Helvetica Neue',Helvetica,Arial,sans-serif" font-size="7.5" letter-spacing="0.6" fill="#5b5344">FEB</text>
  <line x1="385.8" y1="225" x2="385.8" y2="229" stroke="#1a1a1a" stroke-opacity="0.4"/>
  <text x="385.8" y="240" text-anchor="middle" font-family="'Helvetica Neue',Helvetica,Arial,sans-serif" font-size="7.5" letter-spacing="0.6" fill="#5b5344">MAR</text>
  <line x1="453.0" y1="225" x2="453.0" y2="229" stroke="#1a1a1a" stroke-opacity="0.4"/>
  <text x="453.0" y="240" text-anchor="middle" font-family="'Helvetica Neue',Helvetica,Arial,sans-serif" font-size="7.5" letter-spacing="0.6" fill="#5b5344">APR</text>
  <line x1="518.0" y1="225" x2="518.0" y2="229" stroke="#1a1a1a" stroke-opacity="0.4"/>
  <text x="518.0" y="240" text-anchor="middle" font-family="'Helvetica Neue',Helvetica,Arial,sans-serif" font-size="7.5" letter-spacing="0.6" fill="#5b5344">MAY</text>
  <line x1="585.2" y1="225" x2="585.2" y2="229" stroke="#1a1a1a" stroke-opacity="0.4"/>
  <text x="585.2" y="240" text-anchor="middle" font-family="'Helvetica Neue',Helvetica,Arial,sans-serif" font-size="7.5" letter-spacing="0.6" fill="#5b5344">JUN</text>
  <line x1="650.2" y1="225" x2="650.2" y2="229" stroke="#1a1a1a" stroke-opacity="0.4"/>
  <text x="650.2" y="240" text-anchor="middle" font-family="'Helvetica Neue',Helvetica,Arial,sans-serif" font-size="7.5" letter-spacing="0.6" fill="#5b5344">JUL</text>
  <line x1="717.4" y1="225" x2="717.4" y2="229" stroke="#1a1a1a" stroke-opacity="0.4"/>
  <text x="717.4" y="240" text-anchor="middle" font-family="'Helvetica Neue',Helvetica,Arial,sans-serif" font-size="7.5" letter-spacing="0.6" fill="#5b5344">AUG</text>
  <line x1="784.6" y1="225" x2="784.6" y2="229" stroke="#1a1a1a" stroke-opacity="0.4"/>
  <text x="784.6" y="240" text-anchor="middle" font-family="'Helvetica Neue',Helvetica,Arial,sans-serif" font-size="7.5" letter-spacing="0.6" fill="#5b5344">SEP</text>
  <line x1="849.7" y1="225" x2="849.7" y2="229" stroke="#1a1a1a" stroke-opacity="0.4"/>
  <text x="849.7" y="240" text-anchor="middle" font-family="'Helvetica Neue',Helvetica,Arial,sans-serif" font-size="7.5" letter-spacing="0.6" fill="#5b5344">OCT</text>
  <circle cx="338.1" cy="134.8" r="3" fill="none" stroke="#b3121a" stroke-width="1.4"/>
  <text x="346.1" y="137.8" text-anchor="start" font-family="'Helvetica Neue',Helvetica,Arial,sans-serif" font-size="7.5" letter-spacing="0.6" fill="#b3121a">HIGH 57 · FEB 7 2026</text>
  <text x="854" y="126" text-anchor="end" font-family="'Helvetica Neue',Helvetica,Arial,sans-serif" font-size="7" letter-spacing="0.6" fill="#5b5344">RED LINE: 7-DAY MOVING AVERAGE</text>
  <line x1="18" y1="248" x2="862" y2="248" stroke="#1a1a1a" stroke-opacity="0.45" stroke-width="1"/>
  <text x="110" y="261" text-anchor="middle" font-family="'Helvetica Neue',Helvetica,Arial,sans-serif" font-size="8" letter-spacing="1" fill="#5b5344">SESSION HIGH</text>
  <text x="110" y="275" text-anchor="middle" font-family="Georgia,'Times New Roman',Times,serif" font-size="13" font-weight="bold" fill="#1a1a1a">57</text>
  <text x="330" y="261" text-anchor="middle" font-family="'Helvetica Neue',Helvetica,Arial,sans-serif" font-size="8" letter-spacing="1" fill="#5b5344">DAILY AVERAGE</text>
  <text x="330" y="275" text-anchor="middle" font-family="Georgia,'Times New Roman',Times,serif" font-size="13" font-weight="bold" fill="#1a1a1a">4.0</text>
  <text x="550" y="261" text-anchor="middle" font-family="'Helvetica Neue',Helvetica,Arial,sans-serif" font-size="8" letter-spacing="1" fill="#5b5344">ACTIVE SESSIONS</text>
  <text x="550" y="275" text-anchor="middle" font-family="Georgia,'Times New Roman',Times,serif" font-size="13" font-weight="bold" fill="#1a1a1a">168 / 371</text>
  <text x="770" y="261" text-anchor="middle" font-family="'Helvetica Neue',Helvetica,Arial,sans-serif" font-size="8" letter-spacing="1" fill="#5b5344">BUSIEST MONTH</text>
  <text x="770" y="275" text-anchor="middle" font-family="Georgia,'Times New Roman',Times,serif" font-size="13" font-weight="bold" fill="#1a1a1a">FEB 2026</text>
</svg>
