<svg xmlns="http://www.w3.org/2000/svg" width="880" height="290" viewBox="0 0 880 290" role="img" aria-label="Daily Bugle daily contribution chart for Kiko915">
  <rect width="880" height="290" rx="6" fill="#ece5d3"/>
  <rect x="0.5" y="0.5" width="879" height="289" rx="6" fill="none" stroke="#1a1a1a" stroke-opacity="0.35"/>
  <rect x="8" y="8" width="864" height="274" fill="none" stroke="#1a1a1a" stroke-opacity="0.18"/>
  <line x1="18" y1="26" x2="862" y2="26" stroke="#1a1a1a" stroke-opacity="0.75" stroke-width="2.5"/>
  <line x1="18" y1="30" x2="862" y2="30" stroke="#1a1a1a" stroke-opacity="0.75" stroke-width="1"/>
  <text x="440" y="54" text-anchor="middle" font-family="Georgia,'Times New Roman',Times,serif" font-size="26" font-weight="bold" letter-spacing="1.5" fill="#1a1a1a">THE COMMIT EXCHANGE</text>
  <line x1="18" y1="64" x2="862" y2="64" stroke="#1a1a1a" stroke-opacity="0.75" stroke-width="1"/>
  <line x1="18" y1="68" x2="862" y2="68" stroke="#1a1a1a" stroke-opacity="0.75" stroke-width="2.5"/>
  <text x="440" y="82" text-anchor="middle" font-family="'Helvetica Neue',Helvetica,Arial,sans-serif" font-size="8.5" letter-spacing="1.6" fill="#5b5344">MARKET DESK  ·  DAILY TRADING IN COMMITS  ·  52 WEEKS</text>
  <line x1="18" y1="90" x2="862" y2="90" stroke="#1a1a1a" stroke-opacity="0.45" stroke-width="1"/>
  <text x="440" y="110" text-anchor="middle" font-family="Georgia,'Times New Roman',Times,serif" font-size="12" font-weight="bold" fill="#b3121a">HIGH OF 57 IN A SINGLE SESSION  ·  164 SESSIONS TRADED</text>
  <line x1="18" y1="118" x2="862" y2="118" stroke="#1a1a1a" stroke-opacity="0.45" stroke-width="1"/>
  <line x1="52" y1="225.0" x2="854" y2="225.0" stroke="#1a1a1a" stroke-opacity="0.5"/>
  <text x="44" y="228.0" text-anchor="end" font-family="'Helvetica Neue',Helvetica,Arial,sans-serif" font-size="7.5" fill="#5b5344">0</text>
  <line x1="52" y1="209.2" x2="854" y2="209.2" stroke="#1a1a1a" stroke-opacity="0.13"/>
  <text x="44" y="212.2" text-anchor="end" font-family="'Helvetica Neue',Helvetica,Arial,sans-serif" font-size="7.5" fill="#5b5344">10</text>
  <line x1="52" y1="193.3" x2="854" y2="193.3" stroke="#1a1a1a" stroke-opacity="0.13"/>
  <text x="44" y="196.3" text-anchor="end" font-family="'Helvetica Neue',Helvetica,Arial,sans-serif" font-size="7.5" fill="#5b5344">20</text>
  <line x1="52" y1="177.5" x2="854" y2="177.5" stroke="#1a1a1a" stroke-opacity="0.13"/>
  <text x="44" y="180.5" text-anchor="end" font-family="'Helvetica Neue',Helvetica,Arial,sans-serif" font-size="7.5" fill="#5b5344">30</text>
  <line x1="52" y1="161.7" x2="854" y2="161.7" stroke="#1a1a1a" stroke-opacity="0.13"/>
  <text x="44" y="164.7" text-anchor="end" font-family="'Helvetica Neue',Helvetica,Arial,sans-serif" font-size="7.5" fill="#5b5344">40</text>
  <line x1="52" y1="145.8" x2="854" y2="145.8" stroke="#1a1a1a" stroke-opacity="0.13"/>
  <text x="44" y="148.8" text-anchor="end" font-family="'Helvetica Neue',Helvetica,Arial,sans-serif" font-size="7.5" fill="#5b5344">50</text>
  <line x1="52" y1="130.0" x2="854" y2="130.0" stroke="#1a1a1a" stroke-opacity="0.13"/>
  <text x="44" y="133.0" text-anchor="end" font-family="'Helvetica Neue',Helvetica,Arial,sans-serif" font-size="7.5" fill="#5b5344">60</text>
  <path d="M 52.0,225 L 52.0,225.0 L 54.2,225.0 L 56.4,223.4 L 58.6,225.0 L 60.7,223.4 L 62.9,225.0 L 65.1,223.4 L 67.3,225.0 L 69.5,225.0 L 71.7,225.0 L 73.9,213.9 L 76.0,218.7 L 78.2,218.7 L 80.4,225.0 L 82.6,218.7 L 84.8,225.0 L 87.0,225.0 L 89.1,225.0 L 91.3,225.0 L 93.5,225.0 L 95.7,225.0 L 97.9,225.0 L 100.1,221.8 L 102.3,225.0 L 104.4,225.0 L 106.6,225.0 L 108.8,217.1 L 111.0,218.7 L 113.2,225.0 L 115.4,223.4 L 117.6,225.0 L 119.7,225.0 L 121.9,225.0 L 124.1,225.0 L 126.3,225.0 L 128.5,225.0 L 130.7,225.0 L 132.9,221.8 L 135.0,225.0 L 137.2,225.0 L 139.4,225.0 L 141.6,223.4 L 143.8,225.0 L 146.0,225.0 L 148.2,221.8 L 150.3,202.8 L 152.5,215.5 L 154.7,218.7 L 156.9,215.5 L 159.1,204.4 L 161.3,177.5 L 163.4,194.9 L 165.6,225.0 L 167.8,202.8 L 170.0,196.5 L 172.2,198.1 L 174.4,213.9 L 176.6,221.8 L 178.7,220.3 L 180.9,220.3 L 183.1,206.0 L 185.3,225.0 L 187.5,225.0 L 189.7,225.0 L 191.9,225.0 L 194.0,225.0 L 196.2,225.0 L 198.4,225.0 L 200.6,225.0 L 202.8,225.0 L 205.0,225.0 L 207.2,225.0 L 209.3,225.0 L 211.5,225.0 L 213.7,217.1 L 215.9,225.0 L 218.1,225.0 L 220.3,225.0 L 222.5,225.0 L 224.6,225.0 L 226.8,225.0 L 229.0,225.0 L 231.2,225.0 L 233.4,223.4 L 235.6,223.4 L 237.7,221.8 L 239.9,225.0 L 242.1,217.1 L 244.3,225.0 L 246.5,221.8 L 248.7,218.7 L 250.9,212.3 L 253.0,221.8 L 255.2,215.5 L 257.4,225.0 L 259.6,206.0 L 261.8,220.3 L 264.0,210.8 L 266.2,207.6 L 268.3,209.2 L 270.5,218.7 L 272.7,215.5 L 274.9,221.8 L 277.1,225.0 L 279.3,199.7 L 281.5,206.0 L 283.6,217.1 L 285.8,202.8 L 288.0,210.8 L 290.2,215.5 L 292.4,225.0 L 294.6,225.0 L 296.8,225.0 L 298.9,225.0 L 301.1,225.0 L 303.3,223.4 L 305.5,218.7 L 307.7,221.8 L 309.9,212.3 L 312.0,180.7 L 314.2,220.3 L 316.4,225.0 L 318.6,225.0 L 320.8,225.0 L 323.0,225.0 L 325.2,225.0 L 327.3,225.0 L 329.5,225.0 L 331.7,206.0 L 333.9,225.0 L 336.1,225.0 L 338.3,225.0 L 340.5,223.4 L 342.6,220.3 L 344.8,225.0 L 347.0,225.0 L 349.2,225.0 L 351.4,225.0 L 353.6,225.0 L 355.8,225.0 L 357.9,225.0 L 360.1,212.3 L 362.3,194.9 L 364.5,223.4 L 366.7,220.3 L 368.9,223.4 L 371.1,225.0 L 373.2,225.0 L 375.4,225.0 L 377.6,169.6 L 379.8,220.3 L 382.0,225.0 L 384.2,221.8 L 386.3,225.0 L 388.5,213.9 L 390.7,166.4 L 392.9,220.3 L 395.1,215.5 L 397.3,201.3 L 399.5,158.5 L 401.6,134.8 L 403.8,177.5 L 406.0,194.9 L 408.2,174.3 L 410.4,196.5 L 412.6,144.3 L 414.8,190.2 L 416.9,225.0 L 419.1,225.0 L 421.3,217.1 L 423.5,225.0 L 425.7,225.0 L 427.9,225.0 L 430.1,225.0 L 432.2,225.0 L 434.4,225.0 L 436.6,201.3 L 438.8,193.3 L 441.0,191.8 L 443.2,185.4 L 445.4,221.8 L 447.5,217.1 L 449.7,213.9 L 451.9,215.5 L 454.1,223.4 L 456.3,180.7 L 458.5,209.2 L 460.6,210.8 L 462.8,225.0 L 465.0,217.1 L 467.2,213.9 L 469.4,198.1 L 471.6,217.1 L 473.8,225.0 L 475.9,204.4 L 478.1,198.1 L 480.3,209.2 L 482.5,225.0 L 484.7,210.8 L 486.9,212.3 L 489.1,223.4 L 491.2,225.0 L 493.4,225.0 L 495.6,225.0 L 497.8,225.0 L 500.0,225.0 L 502.2,225.0 L 504.4,206.0 L 506.5,225.0 L 508.7,215.5 L 510.9,223.4 L 513.1,220.3 L 515.3,223.4 L 517.5,225.0 L 519.7,225.0 L 521.8,225.0 L 524.0,225.0 L 526.2,225.0 L 528.4,225.0 L 530.6,225.0 L 532.8,213.9 L 534.9,217.1 L 537.1,225.0 L 539.3,225.0 L 541.5,225.0 L 543.7,217.1 L 545.9,225.0 L 548.1,225.0 L 550.2,221.8 L 552.4,225.0 L 554.6,225.0 L 556.8,218.7 L 559.0,223.4 L 561.2,218.7 L 563.4,221.8 L 565.5,225.0 L 567.7,209.2 L 569.9,204.4 L 572.1,198.1 L 574.3,210.8 L 576.5,225.0 L 578.7,199.7 L 580.8,213.9 L 583.0,225.0 L 585.2,225.0 L 587.4,225.0 L 589.6,225.0 L 591.8,225.0 L 594.0,220.3 L 596.1,225.0 L 598.3,221.8 L 600.5,225.0 L 602.7,220.3 L 604.9,190.2 L 607.1,225.0 L 609.2,225.0 L 611.4,225.0 L 613.6,225.0 L 615.8,225.0 L 618.0,225.0 L 620.2,225.0 L 622.4,215.5 L 624.5,225.0 L 626.7,225.0 L 628.9,225.0 L 631.1,225.0 L 633.3,204.4 L 635.5,225.0 L 637.7,225.0 L 639.8,225.0 L 642.0,225.0 L 644.2,225.0 L 646.4,225.0 L 648.6,225.0 L 650.8,225.0 L 653.0,225.0 L 655.1,225.0 L 657.3,223.4 L 659.5,225.0 L 661.7,225.0 L 663.9,225.0 L 666.1,225.0 L 668.3,225.0 L 670.4,225.0 L 672.6,225.0 L 674.8,225.0 L 677.0,225.0 L 679.2,225.0 L 681.4,225.0 L 683.5,225.0 L 685.7,223.4 L 687.9,225.0 L 690.1,225.0 L 692.3,223.4 L 694.5,225.0 L 696.7,225.0 L 698.8,225.0 L 701.0,225.0 L 703.2,223.4 L 705.4,225.0 L 707.6,225.0 L 709.8,201.3 L 712.0,223.4 L 714.1,215.5 L 716.3,212.3 L 718.5,217.1 L 720.7,212.3 L 722.9,206.0 L 725.1,201.3 L 727.3,218.7 L 729.4,221.8 L 731.6,213.9 L 733.8,215.5 L 736.0,225.0 L 738.2,225.0 L 740.4,225.0 L 742.6,225.0 L 744.7,225.0 L 746.9,217.1 L 749.1,225.0 L 751.3,225.0 L 753.5,225.0 L 755.7,215.5 L 757.8,223.4 L 760.0,225.0 L 762.2,225.0 L 764.4,225.0 L 766.6,225.0 L 768.8,225.0 L 771.0,225.0 L 773.1,220.3 L 775.3,225.0 L 777.5,225.0 L 779.7,225.0 L 781.9,225.0 L 784.1,225.0 L 786.3,223.4 L 788.4,225.0 L 790.6,225.0 L 792.8,223.4 L 795.0,215.5 L 797.2,221.8 L 799.4,221.8 L 801.6,223.4 L 803.7,225.0 L 805.9,225.0 L 808.1,225.0 L 810.3,220.3 L 812.5,225.0 L 814.7,225.0 L 816.9,225.0 L 819.0,225.0 L 821.2,225.0 L 823.4,206.0 L 825.6,218.7 L 827.8,215.5 L 830.0,212.3 L 832.1,221.8 L 834.3,225.0 L 836.5,225.0 L 838.7,225.0 L 840.9,225.0 L 843.1,213.9 L 845.3,225.0 L 847.4,225.0 L 849.6,225.0 L 851.8,225.0 L 854.0,225.0 L 854.0,225 Z" fill="#1a1a1a" fill-opacity="0.2"/>
  <path d="M 65.1,224.3 L 67.3,224.3 L 69.5,224.3 L 71.7,224.5 L 73.9,223.0 L 76.0,222.3 L 78.2,221.4 L 80.4,221.6 L 82.6,220.7 L 84.8,220.7 L 87.0,220.7 L 89.1,222.3 L 91.3,223.2 L 93.5,224.1 L 95.7,224.1 L 97.9,225.0 L 100.1,224.5 L 102.3,224.5 L 104.4,224.5 L 106.6,224.5 L 108.8,223.4 L 111.0,222.5 L 113.2,222.5 L 115.4,222.7 L 117.6,222.7 L 119.7,222.7 L 121.9,222.7 L 124.1,223.9 L 126.3,224.8 L 128.5,224.8 L 130.7,225.0 L 132.9,224.5 L 135.0,224.5 L 137.2,224.5 L 139.4,224.5 L 141.6,224.3 L 143.8,224.3 L 146.0,224.3 L 148.2,224.3 L 150.3,221.2 L 152.5,219.8 L 154.7,218.9 L 156.9,217.8 L 159.1,214.8 L 161.3,208.0 L 163.4,204.2 L 165.6,207.4 L 167.8,205.5 L 170.0,202.4 L 172.2,199.9 L 174.4,201.3 L 176.6,207.6 L 178.7,211.2 L 180.9,210.5 L 183.1,211.0 L 185.3,215.0 L 187.5,218.9 L 189.7,220.5 L 191.9,220.9 L 194.0,221.6 L 196.2,222.3 L 198.4,225.0 L 200.6,225.0 L 202.8,225.0 L 205.0,225.0 L 207.2,225.0 L 209.3,225.0 L 211.5,225.0 L 213.7,223.9 L 215.9,223.9 L 218.1,223.9 L 220.3,223.9 L 222.5,223.9 L 224.6,223.9 L 226.8,223.9 L 229.0,225.0 L 231.2,225.0 L 233.4,224.8 L 235.6,224.5 L 237.7,224.1 L 239.9,224.1 L 242.1,223.0 L 244.3,223.0 L 246.5,222.5 L 248.7,221.8 L 250.9,220.3 L 253.0,220.3 L 255.2,218.9 L 257.4,220.0 L 259.6,217.3 L 261.8,217.1 L 264.0,216.0 L 266.2,215.3 L 268.3,213.5 L 270.5,213.9 L 272.7,212.6 L 274.9,214.8 L 277.1,215.5 L 279.3,213.9 L 281.5,213.7 L 283.6,214.8 L 285.8,212.6 L 288.0,211.9 L 290.2,211.0 L 292.4,211.0 L 294.6,214.6 L 296.8,217.3 L 298.9,218.4 L 301.1,221.6 L 303.3,223.4 L 305.5,223.9 L 307.7,223.4 L 309.9,221.6 L 312.0,215.3 L 314.2,214.6 L 316.4,214.6 L 318.6,214.8 L 320.8,215.7 L 323.0,216.2 L 325.2,218.0 L 327.3,224.3 L 329.5,225.0 L 331.7,222.3 L 333.9,222.3 L 336.1,222.3 L 338.3,222.3 L 340.5,222.1 L 342.6,221.4 L 344.8,221.4 L 347.0,224.1 L 349.2,224.1 L 351.4,224.1 L 353.6,224.1 L 355.8,224.3 L 357.9,225.0 L 360.1,223.2 L 362.3,218.9 L 364.5,218.7 L 366.7,218.0 L 368.9,217.8 L 371.1,217.8 L 373.2,217.8 L 375.4,219.6 L 377.6,216.0 L 379.8,215.5 L 382.0,216.2 L 384.2,216.0 L 386.3,216.0 L 388.5,214.4 L 390.7,206.0 L 392.9,213.2 L 395.1,212.6 L 397.3,209.2 L 399.5,200.1 L 401.6,187.2 L 403.8,182.0 L 406.0,186.1 L 408.2,179.5 L 410.4,176.8 L 412.6,168.7 L 414.8,173.2 L 416.9,186.1 L 419.1,192.9 L 421.3,196.0 L 423.5,203.3 L 425.7,207.4 L 427.9,218.9 L 430.1,223.9 L 432.2,223.9 L 434.4,223.9 L 436.6,221.6 L 438.8,217.1 L 441.0,212.3 L 443.2,206.7 L 445.4,206.2 L 447.5,205.1 L 449.7,203.5 L 451.9,205.5 L 454.1,209.8 L 456.3,208.3 L 458.5,211.7 L 460.6,210.1 L 462.8,211.2 L 465.0,211.7 L 467.2,211.4 L 469.4,207.8 L 471.6,213.0 L 473.8,215.3 L 475.9,214.4 L 478.1,210.5 L 480.3,209.4 L 482.5,211.0 L 484.7,212.8 L 486.9,212.1 L 489.1,211.9 L 491.2,214.8 L 493.4,218.7 L 495.6,220.9 L 497.8,220.9 L 500.0,223.0 L 502.2,224.8 L 504.4,222.3 L 506.5,222.3 L 508.7,220.9 L 510.9,220.7 L 513.1,220.0 L 515.3,219.8 L 517.5,219.8 L 519.7,222.5 L 521.8,222.5 L 524.0,223.9 L 526.2,224.1 L 528.4,224.8 L 530.6,225.0 L 532.8,223.4 L 534.9,222.3 L 537.1,222.3 L 539.3,222.3 L 541.5,222.3 L 543.7,221.2 L 545.9,221.2 L 548.1,222.7 L 550.2,223.4 L 552.4,223.4 L 554.6,223.4 L 556.8,222.5 L 559.0,223.4 L 561.2,222.5 L 563.4,222.1 L 565.5,222.5 L 567.7,220.3 L 569.9,217.3 L 572.1,214.4 L 574.3,212.6 L 576.5,213.5 L 578.7,210.3 L 580.8,208.7 L 583.0,211.0 L 585.2,213.9 L 587.4,217.8 L 589.6,219.8 L 591.8,219.8 L 594.0,222.7 L 596.1,224.3 L 598.3,223.9 L 600.5,223.9 L 602.7,223.2 L 604.9,218.2 L 607.1,218.2 L 609.2,218.9 L 611.4,218.9 L 613.6,219.3 L 615.8,219.3 L 618.0,220.0 L 620.2,225.0 L 622.4,223.6 L 624.5,223.6 L 626.7,223.6 L 628.9,223.6 L 631.1,223.6 L 633.3,220.7 L 635.5,220.7 L 637.7,222.1 L 639.8,222.1 L 642.0,222.1 L 644.2,222.1 L 646.4,222.1 L 648.6,225.0 L 650.8,225.0 L 653.0,225.0 L 655.1,225.0 L 657.3,224.8 L 659.5,224.8 L 661.7,224.8 L 663.9,224.8 L 666.1,224.8 L 668.3,224.8 L 670.4,224.8 L 672.6,225.0 L 674.8,225.0 L 677.0,225.0 L 679.2,225.0 L 681.4,225.0 L 683.5,225.0 L 685.7,224.8 L 687.9,224.8 L 690.1,224.8 L 692.3,224.5 L 694.5,224.5 L 696.7,224.5 L 698.8,224.5 L 701.0,224.8 L 703.2,224.5 L 705.4,224.5 L 707.6,224.8 L 709.8,221.4 L 712.0,221.2 L 714.1,219.8 L 716.3,218.0 L 718.5,217.1 L 720.7,215.3 L 722.9,212.6 L 725.1,212.6 L 727.3,211.9 L 729.4,212.8 L 731.6,213.0 L 733.8,212.8 L 736.0,214.6 L 738.2,217.3 L 740.4,220.7 L 742.6,221.6 L 744.7,222.1 L 746.9,222.5 L 749.1,223.9 L 751.3,223.9 L 753.5,223.9 L 755.7,222.5 L 757.8,222.3 L 760.0,222.3 L 762.2,223.4 L 764.4,223.4 L 766.6,223.4 L 768.8,223.4 L 771.0,224.8 L 773.1,224.3 L 775.3,224.3 L 777.5,224.3 L 779.7,224.3 L 781.9,224.3 L 784.1,224.3 L 786.3,224.1 L 788.4,224.8 L 790.6,224.8 L 792.8,224.5 L 795.0,223.2 L 797.2,222.7 L 799.4,222.3 L 801.6,222.3 L 803.7,222.3 L 805.9,222.3 L 808.1,222.5 L 810.3,223.2 L 812.5,223.6 L 814.7,224.1 L 816.9,224.3 L 819.0,224.3 L 821.2,224.3 L 823.4,221.6 L 825.6,221.4 L 827.8,220.0 L 830.0,218.2 L 832.1,217.8 L 834.3,217.8 L 836.5,217.8 L 838.7,220.5 L 840.9,221.4 L 843.1,221.2 L 845.3,223.0 L 847.4,223.4 L 849.6,223.4 L 851.8,223.4 L 854.0,223.4" fill="none" stroke="#b3121a" stroke-opacity="0.85" stroke-width="1.6" stroke-linejoin="round"/>
  <line x1="54.2" y1="225" x2="54.2" y2="229" stroke="#1a1a1a" stroke-opacity="0.4"/>
  <text x="54.2" y="240" text-anchor="middle" font-family="'Helvetica Neue',Helvetica,Arial,sans-serif" font-size="7.5" letter-spacing="0.6" fill="#5b5344">SEP</text>
  <line x1="119.7" y1="225" x2="119.7" y2="229" stroke="#1a1a1a" stroke-opacity="0.4"/>
  <text x="119.7" y="240" text-anchor="middle" font-family="'Helvetica Neue',Helvetica,Arial,sans-serif" font-size="7.5" letter-spacing="0.6" fill="#5b5344">OCT</text>
  <line x1="187.5" y1="225" x2="187.5" y2="229" stroke="#1a1a1a" stroke-opacity="0.4"/>
  <text x="187.5" y="240" text-anchor="middle" font-family="'Helvetica Neue',Helvetica,Arial,sans-serif" font-size="7.5" letter-spacing="0.6" fill="#5b5344">NOV</text>
  <line x1="253.0" y1="225" x2="253.0" y2="229" stroke="#1a1a1a" stroke-opacity="0.4"/>
  <text x="253.0" y="240" text-anchor="middle" font-family="'Helvetica Neue',Helvetica,Arial,sans-serif" font-size="7.5" letter-spacing="0.6" fill="#5b5344">DEC</text>
  <line x1="320.8" y1="225" x2="320.8" y2="229" stroke="#1a1a1a" stroke-opacity="0.4"/>
  <text x="320.8" y="240" text-anchor="middle" font-family="'Helvetica Neue',Helvetica,Arial,sans-serif" font-size="7.5" letter-spacing="0.6" fill="#5b5344">JAN</text>
  <line x1="388.5" y1="225" x2="388.5" y2="229" stroke="#1a1a1a" stroke-opacity="0.4"/>
  <text x="388.5" y="240" text-anchor="middle" font-family="'Helvetica Neue',Helvetica,Arial,sans-serif" font-size="7.5" letter-spacing="0.6" fill="#5b5344">FEB</text>
  <line x1="449.7" y1="225" x2="449.7" y2="229" stroke="#1a1a1a" stroke-opacity="0.4"/>
  <text x="449.7" y="240" text-anchor="middle" font-family="'Helvetica Neue',Helvetica,Arial,sans-serif" font-size="7.5" letter-spacing="0.6" fill="#5b5344">MAR</text>
  <line x1="517.5" y1="225" x2="517.5" y2="229" stroke="#1a1a1a" stroke-opacity="0.4"/>
  <text x="517.5" y="240" text-anchor="middle" font-family="'Helvetica Neue',Helvetica,Arial,sans-serif" font-size="7.5" letter-spacing="0.6" fill="#5b5344">APR</text>
  <line x1="583.0" y1="225" x2="583.0" y2="229" stroke="#1a1a1a" stroke-opacity="0.4"/>
  <text x="583.0" y="240" text-anchor="middle" font-family="'Helvetica Neue',Helvetica,Arial,sans-serif" font-size="7.5" letter-spacing="0.6" fill="#5b5344">MAY</text>
  <line x1="650.8" y1="225" x2="650.8" y2="229" stroke="#1a1a1a" stroke-opacity="0.4"/>
  <text x="650.8" y="240" text-anchor="middle" font-family="'Helvetica Neue',Helvetica,Arial,sans-serif" font-size="7.5" letter-spacing="0.6" fill="#5b5344">JUN</text>
  <line x1="716.3" y1="225" x2="716.3" y2="229" stroke="#1a1a1a" stroke-opacity="0.4"/>
  <text x="716.3" y="240" text-anchor="middle" font-family="'Helvetica Neue',Helvetica,Arial,sans-serif" font-size="7.5" letter-spacing="0.6" fill="#5b5344">JUL</text>
  <line x1="784.1" y1="225" x2="784.1" y2="229" stroke="#1a1a1a" stroke-opacity="0.4"/>
  <text x="784.1" y="240" text-anchor="middle" font-family="'Helvetica Neue',Helvetica,Arial,sans-serif" font-size="7.5" letter-spacing="0.6" fill="#5b5344">AUG</text>
  <line x1="851.8" y1="225" x2="851.8" y2="229" stroke="#1a1a1a" stroke-opacity="0.4"/>
  <text x="851.8" y="240" text-anchor="middle" font-family="'Helvetica Neue',Helvetica,Arial,sans-serif" font-size="7.5" letter-spacing="0.6" fill="#5b5344">SEP</text>
  <circle cx="401.6" cy="134.8" r="3" fill="none" stroke="#b3121a" stroke-width="1.4"/>
  <text x="409.6" y="137.8" text-anchor="start" font-family="'Helvetica Neue',Helvetica,Arial,sans-serif" font-size="7.5" letter-spacing="0.6" fill="#b3121a">HIGH 57 · FEB 7 2026</text>
  <text x="854" y="126" text-anchor="end" font-family="'Helvetica Neue',Helvetica,Arial,sans-serif" font-size="7" letter-spacing="0.6" fill="#5b5344">RED LINE: 7-DAY MOVING AVERAGE</text>
  <line x1="18" y1="248" x2="862" y2="248" stroke="#1a1a1a" stroke-opacity="0.45" stroke-width="1"/>
  <text x="110" y="261" text-anchor="middle" font-family="'Helvetica Neue',Helvetica,Arial,sans-serif" font-size="8" letter-spacing="1" fill="#5b5344">SESSION HIGH</text>
  <text x="110" y="275" text-anchor="middle" font-family="Georgia,'Times New Roman',Times,serif" font-size="13" font-weight="bold" fill="#1a1a1a">57</text>
  <text x="330" y="261" text-anchor="middle" font-family="'Helvetica Neue',Helvetica,Arial,sans-serif" font-size="8" letter-spacing="1" fill="#5b5344">DAILY AVERAGE</text>
  <text x="330" y="275" text-anchor="middle" font-family="Georgia,'Times New Roman',Times,serif" font-size="13" font-weight="bold" fill="#1a1a1a">3.9</text>
  <text x="550" y="261" text-anchor="middle" font-family="'Helvetica Neue',Helvetica,Arial,sans-serif" font-size="8" letter-spacing="1" fill="#5b5344">ACTIVE SESSIONS</text>
  <text x="550" y="275" text-anchor="middle" font-family="Georgia,'Times New Roman',Times,serif" font-size="13" font-weight="bold" fill="#1a1a1a">164 / 368</text>
  <text x="770" y="261" text-anchor="middle" font-family="'Helvetica Neue',Helvetica,Arial,sans-serif" font-size="8" letter-spacing="1" fill="#5b5344">BUSIEST MONTH</text>
  <text x="770" y="275" text-anchor="middle" font-family="Georgia,'Times New Roman',Times,serif" font-size="13" font-weight="bold" fill="#1a1a1a">FEB 2026</text>
</svg>
